<?xml version="1.0" standalone="no"?>
<!DOCTYPE svg PUBLIC "-//W3C//DTD SVG 20010904//EN"
 "http://www.w3.org/TR/2001/REC-SVG-20010904/DTD/svg10.dtd">
<svg version="1.0" xmlns="http://www.w3.org/2000/svg"
 width="964.000000pt" height="807.000000pt" viewBox="0 0 964.000000 807.000000"
 preserveAspectRatio="xMidYMid meet">
<metadata>
Created by potrace 1.16, written by Peter Selinger 2001-2019
</metadata>
<g transform="translate(0.000000,807.000000) scale(0.100000,-0.100000)"
fill="#000000" stroke="none">
<path d="M7790 7621 c0 -19 49 -109 61 -113 31 -10 -6 -38 -86 -65 -55 -17
-91 -35 -97 -47 -9 -16 -7 -18 13 -13 13 3 60 19 104 37 112 45 117 45 144 16
20 -21 23 -32 19 -80 -2 -31 -1 -53 3 -49 8 10 38 102 45 140 3 15 11 37 19
49 7 11 15 41 17 65 l3 44 -75 6 c-41 4 -96 10 -122 14 -34 6 -48 4 -48 -4z
m84 -47 c4 -9 4 -19 2 -22 -10 -9 -36 8 -36 23 0 20 26 19 34 -1z m116 -17 c0
-18 -21 -37 -41 -37 -22 0 -33 16 -25 35 7 19 66 20 66 2z"/>
<path d="M7503 7338 c-22 -7 -33 -17 -33 -29 0 -24 13 -24 61 -1 67 30 45 53
-28 30z"/>
<path d="M7268 7256 c-28 -21 -23 -39 9 -31 34 8 55 24 47 36 -8 13 -36 10
-56 -5z"/>
<path d="M7033 7158 c-57 -20 -85 -48 -48 -48 14 0 115 58 115 66 0 5 6 7 -67
-18z"/>
<path d="M6797 7063 c-13 -12 -7 -23 13 -23 11 0 20 7 20 15 0 15 -21 21 -33
8z"/>
<path d="M6471 6921 c-9 -16 -8 -18 9 -14 11 3 25 11 31 19 9 11 7 14 -9 14
-12 0 -26 -9 -31 -19z"/>
<path d="M6009 6749 c-59 -14 -142 -49 -176 -75 -17 -13 -36 -24 -41 -24 -16
0 -130 -60 -143 -76 -9 -11 -9 -18 -1 -26 8 -8 12 -9 12 -1 0 6 34 24 76 39
43 15 90 39 106 52 16 13 72 42 126 63 118 46 140 72 41 48z"/>
<path d="M5463 6515 c-28 -12 -47 -46 -25 -45 22 1 117 40 120 49 5 16 -57 13
-95 -4z"/>
<path d="M5275 6410 c-26 -28 -24 -45 3 -18 9 9 17 8 37 -2 36 -19 56 1 30 30
-24 27 -36 25 -70 -10z"/>
<path d="M5100 6376 c-23 -22 -170 -86 -232 -101 -19 -5 -28 -14 -28 -26 0
-19 1 -19 40 1 22 11 87 36 143 55 56 19 101 39 99 45 -1 6 10 15 25 21 22 8
24 12 13 19 -23 15 -33 12 -60 -14z"/>
<path d="M4668 6213 c-10 -2 -18 -10 -18 -18 0 -7 -25 -28 -55 -46 -70 -42
-56 -50 22 -11 32 16 79 37 106 47 26 10 47 22 47 26 0 9 -71 10 -102 2z"/>
<path d="M4333 6040 c-13 -5 -23 -14 -23 -20 0 -14 5 -13 42 10 34 20 21 26
-19 10z"/>
<path d="M4190 6016 c-38 -10 -46 -16 -48 -39 -2 -17 -9 -27 -20 -27 -9 0 -26
-7 -36 -15 -11 -8 -29 -16 -40 -16 -15 -1 -16 -3 -5 -6 23 -6 129 36 129 51 0
7 18 21 40 31 22 10 40 22 40 27 0 10 -2 9 -60 -6z"/>
<path d="M3940 5906 c0 -8 -12 -23 -27 -34 -39 -28 -25 -35 30 -16 56 19 67
32 42 51 -24 17 -45 17 -45 -1z"/>
<path d="M4381 5886 c-19 -23 -34 -143 -28 -227 8 -120 50 -183 132 -196 28
-5 39 0 63 24 57 57 70 255 21 327 -24 35 -43 47 -109 64 -19 6 -42 13 -51 16
-9 4 -21 0 -28 -8z m146 -65 c32 -20 51 -57 36 -71 -12 -11 -155 -70 -170 -70
-19 0 -17 94 2 130 14 26 21 30 58 30 24 0 56 -8 74 -19z m47 -173 c-3 -29
-15 -73 -27 -98 -18 -37 -27 -46 -53 -48 -60 -6 -125 86 -86 121 32 28 127 77
149 77 21 0 22 -3 17 -52z"/>
<path d="M3993 5844 c-3 -8 0 -33 7 -53 9 -29 17 -37 30 -34 13 3 24 -9 44
-48 14 -29 26 -61 26 -71 0 -10 4 -26 9 -36 5 -9 15 -43 22 -75 7 -32 16 -60
21 -63 12 -8 10 -89 -7 -192 -9 -51 -13 -97 -10 -102 11 -19 30 1 31 33 0 17
7 69 13 115 16 99 12 136 -23 266 -29 104 -50 152 -116 254 -17 26 -38 29 -47
6z"/>
<path d="M3745 5829 c-4 -6 -4 -13 -1 -16 8 -8 36 5 36 17 0 13 -27 13 -35 -1z"/>
<path d="M3711 5781 c-14 -4 -26 -12 -28 -18 -5 -15 33 -5 48 13 6 8 10 14 8
13 -2 -1 -15 -4 -28 -8z"/>
<path d="M3565 5761 c-17 -6 -61 -25 -113 -50 -18 -8 -17 -24 2 -36 10 -6 21
-4 35 9 11 10 43 29 71 42 28 13 49 28 45 34 -7 11 -11 11 -40 1z"/>
<path d="M1677 5739 c-16 -9 -18 -19 -12 -61 6 -45 5 -50 -9 -45 -35 14 -26
-25 24 -112 57 -99 75 -120 91 -104 7 7 3 27 -10 63 -11 30 -20 54 -18 55 1 1
17 8 36 15 31 12 35 12 48 -6 14 -19 14 -72 -2 -107 -6 -16 -4 -18 16 -15 48
7 51 111 4 167 -19 21 -24 38 -21 62 2 19 0 42 -5 51 -21 40 -102 60 -142 37z
m83 -34 c35 -18 39 -47 13 -85 -34 -50 -55 -47 -72 9 -19 65 -14 87 22 90 4 1
21 -6 37 -14z"/>
<path d="M3218 5618 c-16 -5 -28 -16 -28 -24 0 -9 10 -14 28 -14 29 0 40 6 61
33 12 15 11 17 -10 16 -13 0 -36 -5 -51 -11z"/>
<path d="M3007 5539 c-42 -10 -113 -44 -122 -58 -3 -5 -30 -17 -60 -26 -30 -8
-55 -19 -55 -24 0 -5 -20 -14 -44 -20 -24 -6 -54 -19 -67 -30 -21 -17 -22 -20
-7 -26 11 -4 36 3 64 19 26 14 56 28 68 30 11 2 53 20 91 39 39 19 100 49 138
66 37 17 67 34 67 36 0 7 -28 5 -73 -6z"/>
<path d="M2451 5295 c-29 -14 -78 -32 -110 -41 -50 -14 -117 -41 -191 -78 -30
-14 -38 -43 -13 -49 12 -3 8 -5 -9 -6 -16 0 -28 4 -28 10 0 7 -10 9 -25 5 -18
-5 -27 -1 -35 14 -36 66 -128 -51 -113 -144 3 -22 15 -54 25 -71 10 -16 18
-40 18 -52 0 -12 5 -25 12 -29 8 -5 9 11 4 65 -5 60 -4 73 9 78 20 7 31 -8 84
-113 23 -45 51 -90 62 -99 10 -10 19 -30 19 -45 0 -29 24 -69 36 -58 7 8 -50
155 -67 172 -5 6 -9 16 -9 24 0 8 -16 39 -35 70 -19 32 -37 71 -41 89 -8 41
-3 42 178 45 125 3 161 8 146 24 -7 6 -71 13 -136 13 -57 1 -45 17 24 32 48
11 53 14 33 21 -31 12 -18 21 86 62 50 19 115 46 145 60 55 26 55 26 20 26
-19 0 -59 -11 -89 -25z"/>
<path d="M1597 5244 c-51 -68 -107 -156 -107 -169 0 -8 12 -17 28 -21 63 -13
67 -18 70 -80 1 -33 7 -153 12 -269 5 -115 14 -426 20 -690 5 -264 12 -545 15
-625 8 -256 14 -459 20 -700 7 -275 23 -735 29 -800 2 -25 6 -157 8 -295 3
-245 3 -250 -17 -251 -36 -2 -65 14 -65 36 0 26 -9 25 -43 -5 -30 -28 -36 -62
-11 -72 8 -3 13 -12 10 -19 -14 -36 141 -114 198 -100 21 5 26 12 26 39 0 18
-5 38 -10 43 -8 8 -8 19 0 38 13 34 6 46 -25 46 -24 0 -24 0 -24 118 0 183
-11 421 -23 489 -5 34 -11 142 -13 240 -3 224 -19 760 -40 1298 -7 180 -30
1269 -30 1410 l0 130 25 3 c49 7 62 51 35 120 -14 34 -19 38 -42 34 -23 -4
-25 -2 -19 14 16 39 17 51 4 56 -7 3 -21 -5 -31 -18z m60 -134 c2 -11 -5 -24
-17 -30 -18 -10 -20 -8 -20 23 0 19 3 37 7 40 9 10 26 -9 30 -33z m-77 0 c0
-11 -7 -20 -15 -20 -15 0 -21 21 -8 33 12 13 23 7 23 -13z m100 -3830 c-11
-21 -19 -24 -44 -14 -31 12 -18 34 19 34 33 0 35 -2 25 -20z"/>
<path d="M8592 5178 c-18 -5 -32 -13 -32 -19 0 -6 7 -9 15 -6 8 4 16 3 19 -1
7 -12 117 -1 113 11 -5 16 -76 25 -115 15z"/>
<path d="M9085 5178 c-22 -3 -57 -4 -79 -1 -33 5 -38 3 -35 -12 4 -16 16 -17
113 -16 106 2 161 13 126 25 -29 9 -85 11 -125 4z"/>
<path d="M3276 5151 c-54 -27 -65 -29 -142 -25 -72 4 -85 2 -91 -12 -10 -27
15 -32 121 -27 99 5 102 6 138 41 34 33 40 34 64 23 15 -6 36 -23 46 -37 l20
-25 182 7 c99 4 199 10 221 14 35 6 30 7 -45 14 -47 3 -146 8 -221 10 -124 2
-139 5 -160 24 -31 29 -63 28 -133 -7z"/>
<path d="M7748 5174 c-5 -4 -8 -13 -8 -21 0 -10 23 -13 99 -13 88 0 128 9 104
23 -15 9 -188 19 -195 11z"/>
<path d="M8060 5170 c-23 -14 3 -34 34 -26 17 4 23 11 20 21 -7 17 -32 19 -54
5z"/>
<path d="M8275 5170 c-12 -20 7 -31 43 -24 45 8 51 12 32 24 -20 13 -67 13
-75 0z"/>
<path d="M8820 5160 c0 -13 5 -18 15 -14 8 4 15 10 15 14 0 4 -7 10 -15 14
-10 4 -15 -1 -15 -14z"/>
<path d="M6744 5156 c-3 -8 -3 -20 1 -26 10 -16 65 -12 72 5 7 20 5 21 -35 30
-24 5 -33 3 -38 -9z"/>
<path d="M7210 5155 c-21 -26 0 -33 79 -26 95 8 112 31 23 31 -33 0 -67 2 -75
5 -7 3 -20 -1 -27 -10z"/>
<path d="M7500 5160 c-25 -16 3 -32 51 -28 32 2 45 8 47 21 3 14 -4 17 -40 17
-24 0 -50 -5 -58 -10z"/>
<path d="M5808 5149 c-17 -11 0 -42 18 -35 9 3 36 6 60 6 31 0 44 4 44 14 0
10 -16 15 -56 18 -31 1 -61 0 -66 -3z"/>
<path d="M6107 5153 c-4 -3 -7 -13 -7 -20 0 -12 35 -14 207 -11 192 4 208 5
211 22 4 16 -1 18 -35 11 -41 -9 -288 -8 -339 0 -17 3 -33 2 -37 -2z"/>
<path d="M6902 5143 c3 -16 13 -18 78 -14 81 3 85 4 75 20 -3 6 -39 11 -81 11
-67 0 -75 -2 -72 -17z"/>
<path d="M5171 5142 c-8 -6 -10 -15 -6 -22 6 -10 30 -11 93 -6 86 6 101 10 89
23 -11 11 -161 15 -176 5z"/>
<path d="M5460 5136 c0 -25 17 -28 115 -21 64 5 95 11 95 20 0 8 -30 12 -105
14 -87 2 -105 0 -105 -13z"/>
<path d="M4006 5132 c-4 -3 -6 -12 -6 -20 0 -13 14 -14 92 -8 87 7 107 11 97
20 -7 6 -178 14 -183 8z"/>
<path d="M4398 5134 c-19 -19 -2 -24 82 -24 53 0 90 4 90 10 0 6 -17 10 -39
10 -21 0 -58 3 -82 6 -24 3 -47 2 -51 -2z"/>
<path d="M4810 5124 c0 -14 15 -15 117 -12 81 2 118 7 121 16 3 9 -25 12 -117
12 -104 0 -121 -2 -121 -16z"/>
<path d="M2454 5108 c-15 -24 31 -28 251 -24 227 5 295 11 295 27 0 12 -538
10 -546 -3z"/>
<path d="M1980 4797 c0 -6 7 -44 15 -82 8 -39 15 -89 15 -112 0 -32 4 -43 16
-43 13 0 14 10 8 68 -3 37 -10 77 -15 90 -5 13 -9 39 -9 58 0 24 -5 34 -15 34
-8 0 -15 -6 -15 -13z"/>
<path d="M2227 4593 c-14 -13 -6 -33 12 -33 14 0 18 5 14 20 -5 21 -15 25 -26
13z"/>
<path d="M1956 4465 c-26 -7 -52 -18 -56 -25 -13 -20 0 -41 20 -35 16 5 19 -2
24 -47 3 -29 10 -102 16 -163 6 -60 20 -154 31 -209 11 -54 19 -119 18 -145
-2 -39 1 -290 16 -1406 1 -93 3 -254 3 -358 2 -187 2 -188 26 -196 17 -7 25
-20 30 -51 3 -22 2 -48 -3 -58 -11 -22 4 -62 23 -62 15 0 15 19 2 153 -3 30 0
40 16 48 20 11 31 4 41 -25 2 -5 11 -6 21 -3 14 6 17 14 12 40 -3 19 -4 36 -1
39 5 5 9 408 6 643 -1 95 -4 135 -11 125 -5 -8 -10 -38 -10 -67 0 -28 -4 -55
-10 -58 -6 -4 -10 6 -10 22 0 15 -9 78 -20 138 -24 130 -37 225 -44 315 -2 36
-11 144 -20 240 -8 96 -15 245 -15 330 0 104 -5 182 -16 234 -15 74 -19 256
-7 374 4 39 6 42 33 42 16 0 29 -6 30 -12 0 -7 3 -24 5 -38 3 -14 7 -99 9
-190 5 -173 11 -378 19 -670 6 -183 24 -451 32 -459 11 -11 11 20 -2 254 -18
328 -17 615 0 633 3 3 24 -1 45 -8 42 -13 65 -11 158 16 40 12 71 30 105 62
l48 45 21 -27 c11 -14 25 -24 30 -21 11 7 -16 63 -43 88 -19 18 -20 17 -69
-32 -61 -62 -90 -78 -165 -90 -66 -10 -93 -1 -132 43 -22 26 -23 32 -24 286
-1 242 -3 260 -19 260 -10 0 -22 6 -26 14 -12 19 -81 25 -137 11z m142 -77
c-4 -64 -23 -73 -39 -19 -14 47 -7 71 21 71 19 0 21 -5 18 -52z m-28 -1375 c0
-21 10 -87 21 -148 11 -60 24 -157 29 -215 28 -318 34 -399 37 -537 l3 -152
-35 -11 c-62 -20 -62 -20 -69 283 -11 472 -15 788 -9 803 10 27 23 14 23 -23z
m110 -448 c0 -8 -4 -15 -10 -15 -5 0 -10 7 -10 15 0 8 5 15 10 15 6 0 10 -7
10 -15z m0 -65 c0 -11 -4 -20 -10 -20 -5 0 -10 9 -10 20 0 11 5 20 10 20 6 0
10 -9 10 -20z"/>
<path d="M2280 4450 c0 -14 7 -20 21 -20 15 0 19 4 15 16 -3 9 -6 18 -6 20 0
2 -7 4 -15 4 -8 0 -15 -9 -15 -20z"/>
<path d="M2340 4333 c0 -27 15 -45 33 -41 14 2 15 7 4 27 -15 30 -37 39 -37
14z"/>
<path d="M8408 4144 c-54 -16 -66 -47 -24 -58 21 -5 35 -30 36 -63 0 -6 -10
-15 -22 -19 -38 -11 -142 -61 -163 -78 -19 -16 -18 -16 20 -10 22 4 60 17 85
30 69 35 96 39 108 17 7 -12 7 -25 1 -34 -14 -23 -11 -59 6 -59 9 0 18 7 22
16 5 13 15 15 49 9 57 -8 65 9 14 35 -22 11 -40 25 -40 30 0 6 14 37 30 70 17
33 27 60 24 60 -4 0 0 8 8 18 8 9 14 24 14 32 -1 21 -106 24 -168 4z m112 -36
c0 -24 -40 -78 -56 -78 -13 0 -15 6 -10 33 6 32 29 57 53 57 7 0 13 -6 13 -12z"/>
<path d="M2442 4130 c1 -13 9 -25 16 -28 17 -5 15 23 -4 39 -14 11 -15 10 -12
-11z"/>
<path d="M8121 3895 c-62 -15 -81 -29 -63 -47 9 -9 24 -6 64 12 101 45 100 59
-1 35z"/>
<path d="M2612 3769 c2 -7 10 -15 17 -17 8 -3 12 1 9 9 -2 7 -10 15 -17 17 -8
3 -12 -1 -9 -9z"/>
<path d="M7834 3769 c-3 -6 -2 -15 4 -21 11 -11 52 6 52 22 0 14 -47 13 -56
-1z"/>
<path d="M7766 3731 c-3 -5 -22 -12 -41 -15 -34 -7 -71 -46 -43 -46 22 0 118
49 118 60 0 12 -27 13 -34 1z"/>
<path d="M2640 3711 c0 -6 5 -13 10 -16 6 -3 10 1 10 9 0 9 -4 16 -10 16 -5 0
-10 -4 -10 -9z"/>
<path d="M1237 3654 c-7 -7 -1 -88 13 -184 24 -167 24 -169 -2 -179 -52 -20
-80 -86 -53 -127 20 -31 48 -30 74 3 23 28 23 28 40 -4 6 -13 16 -23 20 -23
14 0 7 126 -7 143 -14 16 -17 36 -32 162 -5 44 -11 89 -14 100 -2 11 -5 41 -5
68 -1 44 -14 60 -34 41z m33 -416 c-1 -18 -25 -48 -38 -48 -7 0 -9 8 -5 18 8
23 24 42 34 42 5 0 9 -6 9 -12z"/>
<path d="M2384 3636 c-11 -8 -30 -12 -46 -9 -24 5 -28 1 -37 -33 -24 -87 -7
-219 35 -265 45 -50 165 -49 216 1 32 32 36 74 16 144 -21 71 -114 176 -157
176 -4 0 -16 -6 -27 -14z m93 -63 c40 -50 67 -104 56 -112 -23 -19 -187 -56
-204 -45 -17 10 -9 52 11 59 13 4 20 15 20 30 0 30 20 76 40 92 26 21 45 14
77 -24z m69 -175 c-10 -53 -32 -68 -96 -68 -55 0 -103 20 -87 36 9 9 155 61
176 63 10 1 12 -7 7 -31z"/>
<path d="M7493 3606 c-7 -8 -36 -22 -65 -31 -87 -28 -138 -55 -138 -70 0 -24
24 -18 123 29 50 25 100 47 110 50 9 3 17 12 17 21 0 19 -31 19 -47 1z"/>
<path d="M2707 3547 c-7 -20 40 -117 57 -117 9 0 16 4 16 8 0 9 -60 122 -65
122 -1 0 -5 -6 -8 -13z"/>
<path d="M7032 3403 c-24 -5 -52 -43 -31 -43 18 0 79 32 79 41 0 9 -8 10 -48
2z"/>
<path d="M2813 3313 c6 -37 38 -75 45 -53 5 14 -30 90 -41 90 -5 0 -7 -16 -4
-37z"/>
<path d="M6795 3301 c-21 -4 -31 -13 -33 -29 -4 -28 11 -28 54 -1 54 33 46 44
-21 30z"/>
<path d="M6583 3203 c-15 -3 -23 -12 -23 -24 0 -21 12 -24 41 -9 18 10 28 42
12 39 -5 -1 -18 -4 -30 -6z"/>
<path d="M6458 3143 c-37 -15 -52 -43 -24 -43 24 0 106 39 106 50 0 14 -39 12
-82 -7z"/>
<path d="M6350 3090 c-9 -16 -8 -22 4 -26 20 -8 32 1 39 26 7 27 -28 27 -43 0z"/>
<path d="M6235 3040 c-11 -5 -46 -19 -77 -31 -43 -15 -58 -25 -58 -40 0 -10 3
-19 7 -19 16 0 183 84 183 92 0 10 -29 9 -55 -2z"/>
<path d="M2980 2980 c0 -21 5 -30 16 -30 11 0 14 5 10 16 -3 9 -6 22 -6 30 0
8 -4 14 -10 14 -5 0 -10 -13 -10 -30z"/>
<path d="M3000 2905 c0 -22 21 -63 36 -69 24 -9 25 11 3 48 -22 37 -39 47 -39
21z"/>
<path d="M5960 2893 c-8 -3 -64 -23 -123 -44 -60 -22 -113 -37 -118 -33 -16 9
-59 -5 -59 -20 0 -8 17 -16 46 -20 42 -5 57 -1 155 46 59 28 110 57 113 65 3
7 4 13 3 12 -1 0 -9 -3 -17 -6z"/>
<path d="M5468 2717 c-28 -11 -43 -33 -30 -41 12 -7 92 31 92 44 0 12 -26 11
-62 -3z"/>
<path d="M5278 2628 c-31 -11 -39 -48 -12 -48 23 0 74 32 74 47 0 15 -24 16
-62 1z"/>
<path d="M3146 2621 c-7 -11 19 -86 40 -118 8 -13 11 -23 7 -23 -3 0 3 -10 14
-22 11 -13 26 -41 33 -63 15 -50 58 -125 70 -125 16 0 12 17 -15 70 -14 27
-25 57 -26 67 0 10 -9 32 -20 48 -25 39 -79 151 -79 165 0 12 -17 13 -24 1z"/>
<path d="M5055 2516 c-12 -18 -42 -32 -121 -57 -66 -21 -109 -40 -115 -51 -19
-35 32 -22 176 47 39 18 78 36 88 39 10 3 17 13 15 23 -5 26 -25 26 -43 -1z"/>
<path d="M4687 2354 c-29 -16 -35 -29 -14 -37 18 -7 58 25 49 40 -5 8 -14 7
-35 -3z"/>
<path d="M4597 2313 c-4 -3 -7 -12 -7 -20 0 -20 28 -15 40 7 9 17 8 20 -8 20
-10 0 -22 -3 -25 -7z"/>
<path d="M4305 2178 c-93 -36 -97 -38 -85 -58 8 -12 24 -7 100 30 51 25 94 48
97 53 9 15 -34 5 -112 -25z"/>
<path d="M3380 2118 c0 -14 15 -57 34 -94 18 -38 36 -80 39 -94 3 -14 13 -34
21 -45 14 -19 15 -19 22 -2 4 12 -11 56 -46 130 -60 127 -70 142 -70 105z"/>
<path d="M4018 2049 c-46 -24 -53 -55 -10 -45 31 8 73 36 76 51 2 17 -28 15
-66 -6z"/>
<path d="M3780 1939 c-27 -11 -70 -48 -70 -60 0 -9 59 4 90 21 60 32 43 64
-20 39z"/>
<path d="M3500 1817 c0 -7 -18 -21 -41 -31 -22 -10 -43 -24 -46 -32 -3 -8 -16
-14 -29 -14 -30 0 -95 -32 -115 -56 -13 -16 -11 -17 20 -11 19 4 55 19 80 34
25 15 53 28 61 29 25 4 99 48 105 62 3 8 3 18 -1 23 -8 14 -34 11 -34 -4z"/>
<path d="M3110 1629 c-13 -6 -32 -16 -40 -24 -9 -8 -45 -24 -80 -37 -42 -15
-66 -29 -68 -41 -5 -26 22 -21 91 17 34 18 75 37 91 40 33 8 76 34 76 47 0 12
-38 10 -70 -2z"/>
<path d="M2117 1594 c-4 -4 -7 -16 -7 -26 0 -20 25 -25 36 -7 8 13 -19 43 -29
33z"/>
<path d="M2773 1474 c-17 -7 -34 -18 -38 -24 -3 -5 -25 -10 -47 -10 -29 0 -49
-7 -65 -22 l-23 -22 -21 22 c-26 28 -40 20 -32 -18 5 -26 2 -30 -16 -30 -21 0
-30 -6 -86 -57 -42 -38 -16 -40 43 -4 27 17 61 31 76 31 28 0 139 52 163 76 8
8 21 14 28 14 25 0 85 33 85 47 0 16 -26 15 -67 -3z"/>
<path d="M2130 1435 c0 -23 6 -38 15 -42 24 -9 28 2 15 41 -15 46 -30 46 -30
1z"/>
<path d="M2260 1239 c-14 -6 -38 -9 -55 -7 -37 3 -65 -16 -94 -62 -26 -44 -27
-70 0 -115 27 -45 55 -61 75 -44 24 20 54 85 60 133 5 33 14 49 35 65 47 35
35 52 -21 30z m-75 -169 c-10 -11 -22 -17 -28 -13 -5 3 1 12 14 19 33 18 35
17 14 -6z"/>
<path d="M2935 1211 c-36 -8 -71 -56 -80 -112 -11 -64 10 -67 65 -11 43 45 45
46 47 22 8 -82 40 -223 51 -228 29 -11 41 20 33 85 -9 80 4 127 39 131 26 3
67 -25 130 -88 67 -68 99 -59 55 16 -14 24 -43 55 -63 68 -20 13 -46 33 -56
45 -11 11 -24 21 -29 21 -6 0 -20 8 -31 19 -39 35 -95 46 -161 32z"/>
<path d="M2754 1015 c-14 -22 -16 -42 -11 -119 7 -102 13 -126 32 -126 26 0
32 73 16 172 -12 72 11 70 53 -5 19 -34 40 -74 47 -89 12 -28 34 -42 50 -32
12 7 12 44 0 44 -5 0 -26 30 -46 68 -20 37 -46 77 -58 90 -27 30 -62 28 -83
-3z"/>
<path d="M1816 743 c-8 -40 -24 -221 -30 -336 -4 -83 -3 -99 10 -104 25 -10
31 11 36 140 4 72 12 136 20 157 15 36 13 60 -6 72 -8 5 -7 11 1 19 9 9 19 0
42 -37 17 -27 34 -53 38 -59 21 -26 53 -87 48 -94 -2 -5 -32 -18 -65 -30 -60
-22 -77 -44 -40 -54 10 -3 61 -4 112 -3 87 1 93 2 96 23 2 13 -5 27 -19 37
-13 8 -20 18 -16 22 3 3 -7 17 -23 30 -15 13 -37 41 -48 62 -11 21 -40 71 -66
110 -50 79 -80 94 -90 45z m199 -282 c8 -14 -31 -33 -58 -29 -21 3 -20 5 8 20
35 20 42 21 50 9z"/>
</g>
</svg>
