<?xml version="1.0" standalone="no"?>
<!DOCTYPE svg PUBLIC "-//W3C//DTD SVG 20010904//EN"
 "http://www.w3.org/TR/2001/REC-SVG-20010904/DTD/svg10.dtd">
<svg version="1.0" xmlns="http://www.w3.org/2000/svg"
 width="1107.000000pt" height="765.000000pt" viewBox="0 0 1107.000000 765.000000"
 preserveAspectRatio="xMidYMid meet">
<metadata>
Created by potrace 1.16, written by Peter Selinger 2001-2019
</metadata>
<g transform="translate(0.000000,765.000000) scale(0.100000,-0.100000)"
fill="#000000" stroke="none">
<path d="M10131 7533 c-5 -10 -6 -39 -2 -64 8 -49 8 -52 -9 -599 -6 -195 -10
-386 -9 -425 1 -38 -1 -164 -5 -280 -3 -115 -11 -631 -17 -1145 -9 -789 -13
-937 -25 -946 -12 -10 -12 -13 2 -18 16 -6 17 -43 11 -519 -3 -282 -9 -640
-12 -797 -6 -373 -16 -1349 -17 -1758 -1 -252 2 -326 12 -332 10 -6 11 -58 5
-248 -5 -163 -4 -241 3 -246 6 -3 13 -2 17 3 6 11 9 327 6 781 -1 151 -2 280
-2 285 0 6 3 510 5 1120 3 611 8 1153 10 1205 3 52 8 583 11 1180 3 597 8
1249 11 1450 7 525 35 1271 49 1338 7 28 5 32 -13 32 -12 0 -25 -8 -31 -17z"/>
<path d="M10070 7513 c-38 -104 -143 -226 -255 -298 -76 -50 -106 -76 -99 -87
7 -11 -42 -88 -55 -88 -16 0 -85 -75 -103 -111 -90 -185 -94 -215 -43 -338 40
-97 46 -108 117 -192 29 -35 66 -84 82 -109 34 -53 140 -165 176 -187 34 -20
81 -87 90 -129 7 -28 0 -59 -34 -158 -53 -152 -112 -246 -191 -307 -32 -24
-83 -69 -114 -100 -31 -31 -71 -64 -89 -73 -18 -9 -73 -43 -122 -76 -50 -32
-158 -92 -242 -134 -125 -61 -174 -79 -268 -100 -200 -44 -254 -57 -275 -67
-11 -5 -58 -17 -105 -28 -144 -32 -304 -80 -500 -150 -114 -40 -228 -60 -241
-40 -7 12 -16 11 -56 -4 -49 -19 -158 -42 -268 -56 -33 -4 -91 -20 -130 -35
-101 -39 -159 -53 -253 -61 -56 -5 -87 -3 -96 4 -10 9 -35 4 -104 -18 -49 -16
-139 -37 -198 -46 -60 -9 -129 -21 -154 -26 -92 -22 -187 -39 -275 -49 -71 -8
-93 -14 -104 -30 -7 -11 -19 -20 -25 -20 -24 -1 -65 -49 -105 -125 -42 -78
-42 -81 -38 -162 3 -71 8 -88 33 -124 16 -23 51 -59 79 -80 57 -43 201 -107
260 -115 43 -6 133 -31 255 -69 41 -13 104 -29 140 -36 36 -7 70 -18 75 -24
12 -14 137 -60 285 -105 58 -17 139 -42 180 -55 170 -55 337 -100 489 -131 87
-18 148 -37 200 -63 102 -51 235 -101 416 -156 83 -25 187 -62 232 -81 45 -19
90 -34 100 -34 10 0 45 -16 78 -35 33 -19 87 -49 120 -66 206 -106 522 -290
581 -336 38 -31 116 -99 174 -152 58 -53 118 -107 135 -120 16 -12 53 -50 81
-83 44 -52 53 -70 64 -128 25 -130 -15 -236 -131 -345 -41 -39 -92 -84 -114
-100 -95 -71 -146 -129 -201 -232 -30 -56 -65 -115 -78 -130 -13 -15 -36 -53
-51 -83 -48 -92 -47 -179 4 -476 8 -46 101 -216 242 -441 39 -63 109 -138 147
-156 33 -17 102 -29 102 -18 0 18 -38 41 -67 41 -25 0 -42 12 -87 61 -31 33
-68 84 -83 112 -14 29 -43 77 -63 107 -89 131 -140 229 -155 297 -60 281 -51
413 36 523 15 19 48 77 74 128 55 107 111 174 201 238 35 25 64 49 64 54 0 5
29 31 64 59 73 58 107 110 132 199 16 59 16 67 0 159 -18 101 -38 153 -59 153
-13 0 -49 30 -226 190 -210 190 -278 234 -711 465 -74 39 -156 84 -183 99 -26
16 -69 34 -95 41 -26 7 -90 29 -142 48 -52 20 -164 57 -249 83 -150 45 -211
69 -356 139 -39 18 -115 43 -171 54 -106 22 -248 59 -324 84 -25 8 -83 25
-130 37 -129 33 -399 126 -484 165 -42 20 -100 40 -128 45 -29 5 -98 22 -153
39 -55 16 -136 37 -179 46 -148 30 -302 113 -359 193 -29 40 -31 47 -28 123 2
66 7 87 27 116 13 20 24 41 24 48 0 22 40 64 88 92 34 20 62 28 106 30 34 1
78 9 98 17 21 9 51 16 67 16 17 0 56 7 88 15 32 9 92 20 133 26 41 6 120 21
175 34 55 12 157 28 228 35 140 13 199 26 291 64 75 32 298 69 308 53 5 -8 18
-8 50 1 24 7 94 22 157 33 62 11 152 35 200 53 47 18 118 42 156 54 190 59
304 92 340 97 22 4 67 15 100 25 33 11 94 26 135 34 155 31 273 67 358 109 48
24 103 50 122 57 19 8 85 46 145 85 61 40 121 78 135 85 43 22 110 81 110 96
0 8 8 17 18 21 30 11 141 103 176 146 18 23 54 85 79 137 106 218 105 323 -4
426 -88 83 -265 271 -307 326 -54 70 -106 197 -106 258 0 71 73 228 132 282
43 39 102 118 102 136 0 4 28 25 62 47 34 22 97 73 139 112 58 56 83 88 107
140 17 38 32 77 34 87 5 31 -21 30 -32 -1z"/>
<path d="M650 6903 c-2 -75 0 -493 5 -1063 l6 -675 67 -2 c37 -1 221 -4 408
-6 224 -3 349 -9 363 -16 17 -9 24 -8 41 9 20 20 21 28 14 128 -6 92 -6 933
-1 1454 l2 168 -150 1 c-333 2 -663 8 -707 14 -41 5 -48 3 -48 -12z m838 -49
l42 -6 -6 -777 c-4 -427 -9 -796 -13 -821 l-6 -45 -125 -8 c-178 -12 -670 -3
-680 13 -13 21 -20 264 -26 857 -7 639 -2 789 24 797 22 7 733 -3 790 -10z"/>
<path d="M1707 5462 c-15 -15 -27 -33 -27 -40 0 -20 31 -14 51 11 29 34 41 6
22 -50 -14 -41 -14 -46 0 -61 18 -17 23 -11 29 37 5 37 20 34 53 -9 16 -22 34
-39 40 -37 22 8 14 35 -20 72 -19 22 -35 48 -35 60 0 15 -10 25 -33 33 -46 17
-50 16 -80 -16z"/>
<path d="M1673 5283 c-33 -17 -42 -36 -23 -48 5 -3 20 1 32 9 34 24 78 21 78
-4 0 -11 7 -23 15 -26 24 -10 17 -31 -15 -51 -34 -20 -34 -33 1 -49 38 -18
139 -25 139 -10 0 22 -23 36 -58 36 -29 0 -33 3 -27 18 19 43 17 69 -6 86 -23
15 -20 16 54 16 70 0 77 2 77 20 0 19 -6 20 -117 19 -88 0 -126 -4 -150 -16z"/>
<path d="M1471 5107 c-17 -17 -13 -27 13 -37 22 -8 25 -15 28 -82 6 -137 6
-1763 -1 -1878 l-6 -115 -39 -5 c-81 -10 -40 -53 61 -65 54 -6 67 -4 102 16
60 33 53 48 -21 46 l-63 -2 -3 574 -2 573 56 -7 c42 -5 59 -3 65 6 13 21 -11
39 -52 39 -22 0 -39 2 -39 5 0 2 9 29 21 60 12 31 18 59 15 62 -12 13 -37 -9
-42 -37 -17 -84 -21 -7 -19 348 2 448 4 466 65 445 47 -16 70 -16 70 1 0 8
-16 17 -37 21 -21 4 -45 12 -53 20 -20 17 -106 25 -119 12z"/>
<path d="M656 5081 c-33 -34 -29 -47 17 -56 17 -4 34 -11 37 -15 11 -18 4
-268 -9 -283 -9 -11 -9 -21 -2 -34 10 -20 7 -390 -5 -473 -12 -90 -21 -1036
-10 -1122 5 -35 4 -36 -34 -42 -21 -3 -42 -11 -46 -18 -9 -14 31 -48 57 -48
10 0 24 -9 31 -20 19 -30 35 -25 64 21 29 46 26 69 -10 69 -20 0 -25 6 -30 38
-15 93 2 1184 18 1211 3 4 6 93 6 197 1 110 6 202 12 220 8 22 8 53 2 101 -5
38 -7 107 -3 154 3 50 2 93 -4 107 -15 32 -57 29 -91 -7z"/>
<path d="M1790 5015 c0 -10 9 -15 26 -15 21 0 25 -4 21 -20 -6 -24 10 -37 26
-21 16 16 79 14 115 -5 33 -16 77 -16 77 1 0 5 -45 22 -100 37 -147 39 -165
42 -165 23z"/>
<path d="M2105 4940 c-7 -11 15 -27 46 -35 25 -6 49 9 36 22 -10 10 -77 21
-82 13z"/>
<path d="M1808 4885 c-9 -19 -9 -28 0 -37 8 -8 14 -4 22 16 13 34 13 46 0 46
-6 0 -16 -11 -22 -25z"/>
<path d="M2264 4898 c-9 -15 7 -26 50 -34 29 -5 38 -4 34 6 -5 17 -76 41 -84
28z"/>
<path d="M2395 4860 c-4 -6 8 -17 29 -25 44 -18 51 -19 65 -1 9 11 5 15 -24
20 -20 4 -42 9 -50 12 -7 3 -16 0 -20 -6z"/>
<path d="M2530 4817 c0 -8 7 -18 16 -21 24 -9 64 -7 64 3 0 13 -8 17 -47 26
-26 5 -33 3 -33 -8z"/>
<path d="M1622 4813 c-26 -5 -37 -23 -46 -76 -8 -45 8 -103 33 -117 14 -7 25
-2 48 23 40 42 53 69 53 110 0 26 -6 39 -25 51 -13 9 -28 15 -32 15 -4 -1 -18
-4 -31 -6z m58 -64 c0 -10 -53 -12 -63 -2 -4 3 3 12 16 18 22 12 47 3 47 -16z
m-20 -46 c-1 -17 -29 -45 -39 -38 -15 9 -14 32 2 38 19 8 37 8 37 0z"/>
<path d="M1775 4790 c-8 -16 -15 -36 -15 -45 0 -29 22 -11 36 30 17 48 16 45
4 45 -5 0 -16 -13 -25 -30z"/>
<path d="M2642 4788 c3 -7 22 -14 44 -16 37 -2 38 -1 20 13 -24 18 -69 20 -64
3z"/>
<path d="M2800 4746 c0 -12 28 -25 53 -26 18 0 5 28 -15 34 -33 8 -38 8 -38
-8z"/>
<path d="M2892 4718 c6 -18 51 -33 74 -24 24 9 7 22 -40 30 -29 6 -37 4 -34
-6z"/>
<path d="M2992 4698 c5 -13 67 -33 75 -24 3 3 3 12 0 21 -8 19 -81 22 -75 3z"/>
<path d="M1732 4689 c2 -7 10 -15 17 -17 8 -3 12 1 9 9 -2 7 -10 15 -17 17 -8
3 -12 -1 -9 -9z"/>
<path d="M3110 4675 c0 -14 57 -38 71 -29 18 11 8 22 -31 32 -31 8 -40 7 -40
-3z"/>
<path d="M3210 4650 c0 -13 9 -21 28 -25 15 -3 47 -12 71 -20 48 -16 57 -14
48 10 -4 9 -19 15 -36 15 -17 0 -45 9 -63 20 -41 25 -48 25 -48 0z"/>
<path d="M1572 4581 c-18 -11 -10 -47 9 -42 8 2 21 5 29 7 8 2 26 -4 39 -14
19 -15 21 -22 12 -38 -22 -40 -73 -175 -68 -181 16 -15 35 12 61 85 15 44 36
88 47 98 29 26 23 41 -24 69 -45 26 -81 31 -105 16z"/>
<path d="M3440 4580 c0 -17 51 -33 64 -20 8 8 7 14 -4 20 -20 13 -60 13 -60 0z"/>
<path d="M3522 4560 c6 -20 57 -35 71 -21 15 15 6 21 -38 28 -29 5 -37 3 -33
-7z"/>
<path d="M3850 4500 c-13 -27 -27 -50 -31 -50 -4 0 -6 -19 -4 -42 3 -38 6 -43
26 -43 20 0 24 5 21 27 -2 25 0 27 55 34 32 4 61 8 65 8 14 2 20 15 13 35 -7
23 -85 81 -108 81 -7 0 -24 -22 -37 -50z m75 -20 c16 -17 16 -20 2 -20 -26 0
-47 11 -47 26 0 20 24 17 45 -6z"/>
<path d="M3632 4528 c3 -7 17 -14 32 -16 20 -3 27 0 24 10 -3 7 -17 14 -32 16
-20 3 -27 0 -24 -10z"/>
<path d="M3754 4499 c-6 -10 28 -29 50 -29 9 0 16 6 16 14 0 15 -58 28 -66 15z"/>
<path d="M824 4213 c8 -228 12 -259 40 -278 53 -38 108 -1 122 81 8 52 -19 87
-81 104 -51 14 -49 5 -50 175 0 89 -2 100 -19 103 -17 4 -18 -4 -12 -185z
m110 -149 c31 -30 10 -104 -29 -104 -18 0 -24 7 -29 38 -11 69 -8 82 18 82 14
0 32 -7 40 -16z"/>
<path d="M1770 4149 c0 -21 3 -21 57 -15 31 4 59 8 61 11 12 12 -14 22 -63 24
-50 1 -55 0 -55 -20z"/>
<path d="M1940 4150 c0 -23 100 -26 108 -2 3 8 -12 12 -52 12 -31 0 -56 -4
-56 -10z"/>
<path d="M2150 4148 c0 -16 32 -19 272 -20 183 -1 253 2 256 10 3 9 -24 12
-90 13 -51 0 -171 2 -265 3 -95 0 -173 -2 -173 -6z"/>
<path d="M2712 4138 c6 -16 32 -22 64 -14 40 10 27 26 -22 26 -32 0 -44 -4
-42 -12z"/>
<path d="M2840 4140 c0 -5 23 -10 50 -10 28 0 50 5 50 10 0 6 -22 10 -50 10
-27 0 -50 -4 -50 -10z"/>
<path d="M3060 4140 c0 -6 7 -13 15 -16 21 -8 67 4 60 16 -8 13 -75 13 -75 0z"/>
<path d="M3202 4138 c3 -8 26 -14 56 -16 42 -2 52 0 52 12 0 13 -12 16 -56 16
-40 0 -55 -4 -52 -12z"/>
<path d="M3370 4140 c0 -18 40 -31 75 -24 58 11 44 34 -20 34 -30 0 -55 -4
-55 -10z"/>
<path d="M3582 4138 c3 -8 27 -14 61 -16 46 -2 57 0 57 13 0 12 -13 15 -61 15
-44 0 -60 -3 -57 -12z"/>
<path d="M3784 4138 c-10 -15 45 -27 100 -21 45 5 54 8 45 19 -12 14 -137 16
-145 2z"/>
<path d="M4648 4145 c-2 -3 -83 -6 -179 -8 -112 -1 -172 -6 -169 -12 3 -5 46
-11 95 -11 50 -1 133 -4 185 -7 105 -7 140 2 106 28 -21 16 -30 18 -38 10z"/>
<path d="M4012 4128 c3 -9 25 -13 66 -13 85 0 84 19 -1 23 -53 2 -68 0 -65
-10z"/>
<path d="M4882 4123 c4 -19 51 -31 101 -24 42 5 32 18 -20 25 -27 4 -56 10
-66 13 -14 4 -18 0 -15 -14z"/>
<path d="M5112 4122 c-55 -4 -51 -26 5 -30 25 -2 44 2 52 11 15 19 1 23 -57
19z"/>
<path d="M5290 4113 c1 -25 19 -33 58 -27 62 10 56 34 -8 34 -27 0 -50 -3 -50
-7z"/>
<path d="M5510 4106 c0 -13 15 -16 88 -17 48 0 114 -3 146 -5 65 -6 109 1 104
16 -2 5 -78 12 -170 15 -148 5 -168 4 -168 -9z"/>
<path d="M5872 4098 c5 -15 50 -22 84 -14 43 11 25 26 -32 26 -40 0 -55 -4
-52 -12z"/>
<path d="M6120 4095 c0 -13 8 -16 38 -13 20 2 37 8 37 13 0 6 -17 11 -37 13
-30 3 -38 0 -38 -13z"/>
<path d="M6222 4098 c3 -7 23 -14 46 -16 33 -2 42 0 42 12 0 12 -11 16 -46 16
-32 0 -44 -4 -42 -12z"/>
<path d="M6443 4096 c2 -6 29 -12 60 -14 45 -2 57 0 57 12 0 12 -13 15 -60 14
-40 -1 -59 -5 -57 -12z"/>
<path d="M1830 4080 c0 -17 6 -20 50 -20 28 0 50 5 50 10 0 12 -10 16 -62 25
-34 5 -38 4 -38 -15z"/>
<path d="M6690 4090 c0 -12 45 -24 59 -15 22 13 10 25 -24 25 -19 0 -35 -4
-35 -10z"/>
<path d="M6823 4088 c2 -8 20 -13 42 -13 22 0 40 5 43 13 2 8 -10 12 -43 12
-33 0 -45 -4 -42 -12z"/>
<path d="M6986 4085 c9 -24 104 -18 104 6 0 5 -25 9 -55 9 -44 0 -53 -3 -49
-15z"/>
<path d="M7176 4091 c-9 -14 7 -21 49 -23 32 -1 54 7 44 16 -11 10 -88 16 -93
7z"/>
<path d="M7417 4093 c-46 -5 -39 -23 9 -23 24 0 34 5 34 15 0 8 -1 14 -2 13
-2 -1 -20 -3 -41 -5z"/>
<path d="M8091 4091 c-46 -5 -52 -8 -39 -19 24 -19 143 -12 143 8 0 17 -25 20
-104 11z"/>
<path d="M4244 4075 c-3 -8 -3 -18 0 -24 3 -5 13 -46 22 -91 14 -75 14 -88 -2
-158 -20 -92 -52 -160 -105 -224 -21 -26 -39 -53 -39 -62 0 -81 136 106 176
243 9 31 16 88 17 127 1 117 -47 248 -69 189z"/>
<path d="M7545 4080 c3 -5 26 -10 51 -10 24 0 44 5 44 10 0 6 -23 10 -51 10
-31 0 -48 -4 -44 -10z"/>
<path d="M7740 4080 c0 -5 3 -10 8 -11 4 0 22 -2 40 -3 22 -3 32 1 32 10 0 10
-13 14 -40 14 -22 0 -40 -4 -40 -10z"/>
<path d="M7910 4081 c0 -6 5 -13 11 -16 15 -10 61 4 54 15 -8 13 -65 13 -65 1z"/>
<path d="M8370 4077 c0 -9 11 -12 35 -9 50 6 54 22 6 22 -27 0 -41 -4 -41 -13z"/>
<path d="M8570 4081 c0 -13 27 -21 45 -15 25 10 17 24 -15 24 -16 0 -30 -4
-30 -9z"/>
<path d="M8750 4081 c0 -11 75 -25 90 -16 23 14 7 25 -40 25 -27 0 -50 -4 -50
-9z"/>
<path d="M8975 4081 l-40 -7 47 -8 c47 -8 73 -2 63 15 -7 10 -9 10 -70 0z"/>
<path d="M9150 4071 c8 -5 39 -12 68 -16 44 -6 52 -4 52 9 0 13 -12 16 -67 16
-43 0 -62 -4 -53 -9z"/>
<path d="M9333 4068 c2 -9 25 -13 67 -13 42 0 65 4 68 13 3 9 -15 12 -68 12
-53 0 -71 -3 -67 -12z"/>
<path d="M9520 4071 c0 -15 34 -22 85 -20 55 3 67 14 24 23 -47 9 -109 7 -109
-3z"/>
<path d="M9776 4071 c-7 -10 60 -25 74 -16 6 4 8 11 5 16 -8 12 -72 12 -79 0z"/>
<path d="M9945 4070 l-60 -6 46 -8 c50 -9 96 -5 90 7 -6 13 -15 14 -76 7z"/>
<path d="M2020 4035 c0 -8 9 -15 20 -15 11 0 20 7 20 15 0 8 -9 15 -20 15 -11
0 -20 -7 -20 -15z"/>
<path d="M2132 4008 c3 -7 13 -15 22 -16 12 -3 17 1 14 10 -3 7 -13 15 -22 16
-12 3 -17 -1 -14 -10z"/>
<path d="M2230 3980 c0 -13 46 -24 67 -15 17 7 16 8 -2 15 -28 12 -65 12 -65
0z"/>
<path d="M2390 3940 c0 -17 37 -30 62 -21 l23 9 -28 11 c-35 14 -57 14 -57 1z"/>
<path d="M4518 3931 c-41 -15 -88 -114 -88 -184 0 -52 38 -115 81 -137 83 -43
135 -15 165 85 13 48 14 65 5 97 -13 40 -61 93 -96 104 -11 3 -27 14 -35 24
-9 11 -22 15 -32 11z m86 -75 c14 -9 30 -24 35 -35 9 -17 5 -19 -42 -25 -29
-3 -69 -9 -89 -12 -33 -5 -38 -4 -38 12 0 11 9 33 19 51 17 27 25 31 55 29 19
-2 46 -11 60 -20z m55 -111 c8 -8 -30 -92 -49 -110 -27 -24 -72 -11 -110 31
-45 52 -41 70 23 82 47 10 125 7 136 -3z"/>
<path d="M2532 3898 c2 -6 26 -18 52 -25 40 -12 50 -12 57 -2 6 10 -5 17 -39
26 -60 15 -75 16 -70 1z"/>
<path d="M2766 3832 c12 -11 156 -42 192 -41 15 0 -16 11 -68 25 -99 25 -141
30 -124 16z"/>
<path d="M3190 3725 c15 -18 73 -35 119 -35 48 0 32 11 -47 31 -84 22 -87 22
-72 4z"/>
<path d="M3390 3675 c0 -19 157 -73 236 -80 57 -5 58 -5 29 9 -16 9 -37 15
-45 16 -8 0 -58 14 -110 30 -97 31 -110 34 -110 25z"/>
<path d="M3845 3535 c28 -22 83 -35 140 -34 44 0 47 1 25 11 -29 12 -148 38
-170 38 -11 -1 -10 -4 5 -15z"/>
<path d="M4100 3483 c0 -12 58 -38 115 -53 51 -13 55 -13 55 3 0 7 -29 19 -68
29 -37 9 -75 20 -84 23 -10 4 -18 3 -18 -2z"/>
<path d="M4472 3379 c7 -21 57 -42 84 -35 35 9 29 23 -13 30 -21 4 -46 10 -57
13 -12 3 -17 1 -14 -8z"/>
<path d="M4720 3312 c0 -11 89 -42 118 -42 45 0 16 24 -44 37 -72 15 -74 15
-74 5z"/>
<path d="M5042 3224 c2 -13 18 -22 53 -30 110 -26 141 -8 37 21 -31 9 -65 19
-75 22 -14 4 -18 0 -15 -13z"/>
<path d="M5250 3170 c0 -15 156 -64 172 -54 18 11 6 22 -34 32 -79 21 -138 30
-138 22z"/>
<path d="M5590 3074 c0 -9 62 -31 108 -39 57 -9 55 9 -5 29 -46 16 -103 21
-103 10z"/>
<path d="M5840 3014 c0 -18 39 -34 103 -41 32 -4 47 -2 47 6 0 6 -3 11 -8 11
-4 0 -37 9 -75 19 -56 17 -67 17 -67 5z"/>
<path d="M6192 2919 c6 -20 79 -42 92 -29 15 15 -3 27 -53 35 -34 6 -42 4 -39
-6z"/>
<path d="M649 2843 c-4 -11 -4 -171 2 -355 8 -286 12 -1316 6 -1402 l-2 -30
447 0 c338 0 450 2 460 12 6 6 8 15 4 19 -4 5 -195 7 -424 5 -328 -2 -420 0
-433 10 -14 12 -17 69 -23 493 -8 621 -8 1133 0 1184 5 33 12 43 32 48 13 3
176 2 361 -3 185 -4 361 -8 391 -8 l55 -1 6 -270 c7 -299 13 -1392 7 -1414 -1
-8 5 -17 15 -19 17 -3 18 31 12 805 -4 499 -2 829 4 863 7 40 6 58 -2 67 -9 8
-135 12 -461 15 l-448 3 -9 -22z"/>
<path d="M6397 2859 c15 -15 93 -24 93 -11 0 12 -34 22 -74 22 -22 0 -27 -3
-19 -11z"/>
<path d="M6580 2821 c0 -5 17 -16 38 -24 40 -16 127 -41 127 -36 0 1 10 -3 23
-10 18 -10 27 -10 38 -1 20 17 8 30 -29 30 -18 0 -65 11 -105 25 -81 27 -92
29 -92 16z"/>
<path d="M6912 2740 c4 -14 104 -51 113 -42 16 16 0 31 -41 37 -26 3 -53 9
-62 12 -9 4 -13 1 -10 -7z"/>
<path d="M7101 2685 c19 -20 89 -33 89 -16 0 13 -9 17 -65 26 -37 6 -39 5 -24
-10z"/>
<path d="M10428 2649 c-10 -5 -18 -18 -18 -29 0 -10 -7 -25 -15 -34 -27 -27
-17 -57 38 -113 30 -29 59 -53 65 -53 26 0 9 33 -38 77 -52 47 -60 68 -16 39
51 -33 63 -10 19 36 -37 39 -21 56 37 39 42 -13 60 -9 60 13 0 8 -16 16 -37
19 -21 3 -47 8 -58 11 -11 3 -28 1 -37 -5z"/>
<path d="M7280 2635 c0 -6 128 -45 147 -45 8 0 13 5 11 12 -7 19 -158 51 -158
33z"/>
<path d="M7600 2562 c0 -6 33 -31 43 -32 19 -1 4 28 -18 32 -14 3 -25 3 -25 0z"/>
<path d="M7760 2509 c0 -4 5 -11 11 -15 20 -12 180 -53 304 -79 66 -13 151
-33 190 -44 44 -13 73 -17 79 -11 6 6 4 11 -5 13 -25 7 -152 40 -209 53 -30 8
-75 19 -100 25 -179 46 -270 65 -270 58z"/>
<path d="M10363 2391 c-13 -11 -23 -24 -23 -29 0 -5 20 -28 45 -51 32 -29 53
-41 75 -41 32 0 40 19 20 50 -7 11 -4 16 13 20 12 3 23 14 25 24 3 16 0 18
-23 12 -18 -5 -34 -1 -55 14 -35 25 -49 25 -77 1z m56 -43 c17 -18 31 -37 31
-41 0 -17 -56 27 -71 55 -16 29 7 21 40 -14z"/>
<path d="M8456 2325 c6 -15 19 -20 86 -29 57 -7 54 9 -6 27 -66 21 -87 22 -80
2z"/>
<path d="M8640 2286 c0 -12 91 -48 106 -42 24 9 8 23 -35 30 -22 3 -46 9 -55
12 -9 3 -16 3 -16 0z"/>
<path d="M10337 2243 c-13 -12 -7 -48 13 -78 18 -27 18 -31 3 -47 -14 -16 -15
-21 -2 -45 20 -39 99 -113 121 -113 24 0 23 16 -4 38 -12 9 -40 34 -62 54 -32
29 -37 38 -22 38 10 0 33 -9 52 -20 55 -35 47 -5 -16 58 -74 72 -77 91 -10 57
60 -30 80 -32 80 -5 0 15 -7 20 -27 20 -16 0 -46 11 -68 25 -44 27 -48 28 -58
18z"/>
<path d="M9056 2161 c6 -7 42 -19 79 -26 37 -8 76 -17 86 -20 12 -4 19 -1 19
7 0 9 -25 18 -67 27 -116 23 -129 25 -117 12z"/>
<path d="M10142 2063 c2 -10 7 -17 11 -15 4 1 16 2 27 2 11 0 20 7 20 15 0 10
-10 15 -31 15 -24 0 -30 -4 -27 -17z"/>
<path d="M9555 2023 c41 -22 133 -45 147 -37 14 9 -115 54 -151 54 l-26 -1 30
-16z"/>
<path d="M9844 1952 c9 -15 84 -37 93 -28 12 12 -11 25 -56 32 -32 5 -42 4
-37 -4z"/>
<path d="M10385 1938 c9 -29 64 -88 82 -88 8 0 16 7 20 16 7 18 -34 64 -58 64
-9 0 -19 7 -23 15 -9 25 -28 18 -21 -7z"/>
<path d="M10337 1842 c-30 -33 2 -120 39 -105 6 2 14 -3 17 -11 7 -19 37 -22
37 -4 0 7 -17 29 -37 50 -42 43 -37 67 11 48 39 -14 46 -13 46 10 0 13 -7 20
-19 20 -10 0 -32 3 -47 6 -22 4 -34 0 -47 -14z"/>
<path d="M10133 1795 c-3 -9 -3 -18 -1 -21 7 -7 58 17 58 28 0 15 -50 8 -57
-7z"/>
<path d="M10330 1725 c0 -32 65 -91 106 -95 56 -6 58 10 7 41 -21 13 -46 33
-56 44 -18 20 -18 20 -12 -5 l6 -25 -17 23 c-15 19 -34 30 -34 17z"/>
<path d="M10169 1640 c-21 -14 5 -53 110 -162 52 -54 92 -100 89 -103 -2 -2
-28 15 -57 39 -89 73 -103 39 -39 -91 20 -41 51 -82 87 -115 53 -49 117 -85
128 -74 7 7 -55 84 -137 169 -36 38 -69 75 -73 83 -17 29 1 24 44 -12 70 -59
148 -106 171 -102 20 3 19 4 -8 33 -16 17 -71 68 -122 115 -93 84 -167 171
-160 189 1 5 55 -17 118 -48 130 -66 187 -84 177 -56 -4 9 -7 18 -7 21 0 4
-56 34 -65 34 -3 0 -3 -4 0 -10 12 -20 -20 -9 -93 31 -92 51 -145 70 -163 59z
m200 -385 c45 -49 51 -61 22 -46 -18 10 -81 77 -81 86 0 15 22 0 59 -40z"/>
</g>
</svg>
