<?xml version="1.0" standalone="no"?>
<!DOCTYPE svg PUBLIC "-//W3C//DTD SVG 20010904//EN"
 "http://www.w3.org/TR/2001/REC-SVG-20010904/DTD/svg10.dtd">
<svg version="1.0" xmlns="http://www.w3.org/2000/svg"
 width="1165.000000pt" height="1046.000000pt" viewBox="0 0 1165.000000 1046.000000"
 preserveAspectRatio="xMidYMid meet">
<metadata>
Created by potrace 1.16, written by Peter Selinger 2001-2019
</metadata>
<g transform="translate(0.000000,1046.000000) scale(0.100000,-0.100000)"
fill="#000000" stroke="none">
<path d="M1083 10234 c-36 -19 -53 -52 -58 -110 -2 -24 -15 -57 -30 -80 -27
-39 -27 -40 -21 -159 9 -154 22 -246 47 -315 12 -30 23 -63 26 -72 8 -27 30
-28 48 -2 13 20 15 42 10 119 -3 52 -10 118 -15 146 l-10 52 53 47 c58 53 125
170 134 238 7 50 -12 108 -41 127 -35 23 -106 27 -143 9z m111 -66 c22 -31 19
-85 -7 -135 -12 -23 -32 -61 -45 -85 -13 -24 -32 -50 -43 -56 -17 -11 -21 -9
-28 10 -15 40 -12 125 4 138 19 16 19 34 0 50 -20 16 -19 28 5 68 17 27 25 32
59 32 30 0 44 -6 55 -22z m-144 -380 c0 -36 -4 -35 -14 5 -4 16 -2 27 4 27 5
0 10 -14 10 -32z"/>
<path d="M1483 9643 c-7 -2 -13 -12 -13 -21 0 -9 -7 -30 -15 -46 -12 -22 -14
-49 -11 -105 3 -42 8 -166 11 -276 4 -111 8 -219 10 -240 2 -22 7 -197 10
-390 7 -446 13 -707 26 -1020 5 -137 12 -497 14 -800 3 -302 7 -597 9 -655 11
-267 16 -473 22 -825 4 -209 8 -409 9 -445 2 -36 5 -258 9 -495 6 -453 12
-765 22 -1185 3 -140 7 -325 9 -410 2 -85 6 -321 9 -525 3 -203 8 -422 11
-485 4 -63 8 -162 10 -220 2 -58 5 -109 6 -115 1 -5 -2 -57 -6 -115 -11 -160
-40 -150 380 -134 187 7 457 15 600 18 143 4 341 8 440 11 253 7 498 14 725
20 107 3 300 8 428 11 172 5 250 3 294 -6 47 -10 62 -10 67 -1 8 13 257 24
761 36 146 3 324 8 395 10 304 11 995 29 1560 40 143 3 314 7 380 10 182 7
502 16 775 20 238 4 368 8 786 21 111 3 313 7 450 8 137 1 255 5 262 10 8 4
10 16 6 28 -4 12 -1 24 7 29 7 4 10 11 6 15 -3 4 -12 3 -19 -3 -7 -5 -56 -10
-108 -12 -52 -1 -183 -6 -290 -11 -279 -14 -417 -13 -423 3 -4 9 -6 9 -6 0 -1
-9 -17 -13 -48 -12 -27 0 -42 3 -35 6 6 2 12 9 12 13 0 5 -18 1 -41 -9 -43
-20 -77 -17 -86 5 -4 10 -10 11 -25 3 -31 -17 -148 -22 -148 -7 -1 9 -4 8 -13
-3 -7 -8 -21 -16 -32 -17 -115 -8 -482 -21 -690 -24 l-260 -3 -3 57 c-2 32 1
72 5 90 12 47 5 95 -14 102 -30 12 -37 -13 -41 -131 -1 -65 -5 -119 -7 -122
-3 -2 -164 -8 -358 -12 -475 -10 -1065 -26 -1612 -44 -129 -4 -417 -11 -1205
-30 -96 -2 -245 -6 -330 -10 -368 -13 -695 -21 -1280 -30 -234 -4 -428 -9
-431 -11 -3 -2 -175 -6 -382 -10 -312 -5 -378 -4 -381 7 -6 18 -24 633 -31
1014 -3 160 -10 466 -15 680 -22 852 -30 1261 -30 1490 -1 132 -5 300 -10 373
-5 72 -10 264 -11 425 l-1 292 68 -3 c74 -3 108 8 87 29 -6 6 -45 13 -85 15
l-73 3 -6 258 c-4 142 -10 341 -13 443 -4 102 -8 374 -9 606 l-3 420 31 0
c111 1 1284 15 1575 19 331 5 931 8 1151 6 l96 -1 53 -62 c60 -72 450 -488
734 -783 106 -110 235 -247 287 -305 52 -57 169 -181 260 -275 92 -93 179
-183 194 -200 l27 -30 -32 -6 c-30 -6 -49 -23 -50 -41 0 -4 10 -14 23 -23 16
-12 19 -18 9 -24 -7 -4 -59 -52 -115 -107 -57 -54 -127 -122 -158 -150 -30
-28 -62 -62 -71 -75 -26 -41 -300 -337 -440 -477 -73 -73 -169 -169 -213 -213
-44 -44 -124 -126 -177 -182 -163 -171 -190 -197 -210 -197 -15 0 -18 8 -18
60 0 45 -4 62 -15 67 -25 9 -30 -4 -34 -89 -2 -60 0 -83 10 -89 11 -6 3 -19
-31 -56 -119 -125 -430 -442 -891 -907 -278 -281 -532 -540 -565 -576 -32 -35
-79 -82 -104 -105 -24 -22 -62 -60 -85 -85 -22 -24 -110 -115 -195 -201 -85
-86 -164 -167 -175 -179 -11 -12 -143 -143 -294 -291 -260 -257 -273 -271
-263 -295 7 -13 15 -24 19 -24 5 0 43 34 86 75 43 41 85 75 92 75 9 0 12 6 8
16 -4 11 20 40 83 99 71 67 92 82 105 74 24 -12 29 -11 29 5 0 9 -7 12 -20 9
-11 -3 -20 -3 -20 1 0 6 126 137 374 390 54 56 126 132 158 170 33 38 86 92
117 120 73 67 115 110 148 153 15 19 94 101 176 182 175 171 146 142 279 277
59 60 112 114 118 119 5 6 68 69 138 140 71 72 149 149 174 171 25 23 48 49
51 58 4 9 13 16 22 16 8 0 15 5 15 11 0 6 46 57 103 113 56 56 107 109 114
117 7 8 33 32 58 54 25 21 45 42 45 46 0 4 122 129 270 278 149 149 270 277
270 284 0 7 10 17 22 22 12 6 26 18 32 29 16 27 52 66 61 66 9 0 128 110 134
123 1 5 59 64 127 131 68 68 124 127 124 131 0 4 35 41 78 83 42 43 88 92 102
111 14 19 55 65 93 103 37 38 67 73 67 78 0 5 8 11 19 15 10 3 73 62 140 130
68 69 129 125 136 125 7 0 32 -21 56 -47 23 -27 111 -120 194 -208 189 -200
245 -261 281 -304 46 -56 146 -162 183 -195 107 -95 521 -526 596 -619 11 -14
117 -126 236 -249 118 -122 278 -290 354 -373 76 -82 186 -200 244 -260 58
-61 133 -139 166 -175 33 -36 100 -108 150 -160 49 -52 114 -122 144 -155 30
-33 118 -127 195 -210 77 -82 165 -177 196 -209 30 -33 105 -112 166 -175 61
-64 129 -136 152 -161 22 -25 85 -92 140 -149 55 -57 126 -134 159 -172 39
-46 65 -68 81 -68 30 -1 38 23 18 54 -9 14 -20 55 -23 91 -8 82 -21 94 -15 13
2 -32 1 -59 -4 -59 -9 0 -59 52 -157 165 -33 39 -76 82 -94 96 -52 42 -83 73
-83 85 0 6 -39 47 -87 92 -118 111 -104 96 -328 342 -145 159 -229 248 -405
430 -45 47 -99 105 -119 130 -43 54 -143 162 -263 285 -241 247 -380 395 -413
442 -11 16 -18 40 -16 58 4 56 -31 113 -44 70 -3 -8 -7 -22 -10 -31 -4 -13
-22 -1 -75 52 -38 38 -74 74 -80 79 -36 34 -160 165 -160 169 0 14 -218 246
-319 341 -36 33 -78 75 -95 93 -46 50 -163 168 -246 247 -40 39 -80 82 -89 97
-22 34 -121 142 -296 322 -252 259 -258 266 -243 283 7 9 110 115 228 235 118
121 216 225 218 231 2 7 20 24 40 38 20 14 51 45 67 69 17 24 57 69 90 99 88
81 398 393 565 569 110 115 321 330 396 401 2 3 3 -6 1 -20 -3 -13 -1 -32 4
-41 6 -10 5 -19 -1 -23 -11 -7 -14 -103 -4 -129 3 -9 15 -16 26 -16 18 0 20 6
17 80 -2 43 0 82 4 86 4 4 7 17 7 28 0 11 11 30 25 42 31 27 115 33 560 39
165 2 487 7 715 11 369 5 420 4 454 -10 21 -9 40 -16 42 -16 2 0 4 15 4 34 0
61 -7 62 -296 55 -143 -4 -529 -10 -859 -13 l-600 -7 90 89 c219 216 1151
1164 1256 1278 58 63 239 234 247 234 4 0 13 14 19 30 11 28 10 30 -15 37 -20
5 -29 1 -41 -18 -9 -13 -24 -30 -35 -39 -33 -27 -158 -152 -296 -295 -74 -77
-393 -402 -708 -722 -399 -404 -582 -583 -600 -587 -49 -10 -311 -17 -697 -20
-248 -2 -395 -7 -422 -15 -26 -7 -103 -10 -202 -9 l-161 3 5 30 c2 17 7 48 10
70 14 97 12 95 60 95 35 0 45 4 50 20 3 11 13 20 20 20 24 0 -21 65 -65 94
-36 23 -38 28 -33 61 5 31 3 35 -15 35 -11 0 -24 -4 -27 -10 -3 -5 -15 -10
-25 -10 -12 0 -35 -21 -59 -53 -22 -30 -53 -59 -69 -66 -17 -7 -33 -19 -36
-27 -11 -29 6 -42 62 -49 89 -10 103 -15 98 -34 -3 -9 -7 -38 -10 -66 -15
-130 -11 -123 -69 -127 -29 -2 -79 1 -112 7 -57 9 -396 11 -860 4 -115 -2
-322 1 -460 5 l-250 8 -55 57 c-30 31 -89 93 -130 137 -86 93 -290 309 -595
629 -116 121 -231 242 -255 269 -25 26 -87 92 -138 146 -51 54 -105 113 -120
132 -24 30 -152 167 -242 258 -19 19 -34 37 -35 40 -1 23 -393 435 -413 435
-10 0 -18 -10 -20 -24 -3 -19 18 -46 110 -136 139 -138 259 -258 276 -276 7
-8 85 -96 175 -196 89 -99 290 -315 447 -478 157 -164 352 -370 434 -459 82
-88 209 -224 281 -301 73 -77 151 -161 175 -187 l43 -48 -239 -1 c-132 0 -336
-2 -454 -4 -118 -2 -631 -7 -1140 -10 -509 -3 -935 -9 -947 -12 -23 -5 -23 -4
-24 113 -1 66 -1 122 -1 125 1 3 -3 88 -8 190 -5 101 -12 434 -15 739 -4 305
-8 557 -11 561 -2 4 -3 92 -3 196 2 247 1 328 -7 386 -6 47 -8 50 -31 40z
m4717 -2038 c0 -32 -3 -35 -28 -35 -43 0 -45 11 -10 41 18 16 34 28 36 29 1 0
2 -16 2 -35z m1420 -334 c0 -3 -45 -51 -100 -106 -55 -55 -100 -95 -100 -89 0
5 4 14 9 20 4 5 19 39 31 77 18 50 21 70 13 78 -19 19 -43 2 -63 -47 -30 -69
-37 -124 -17 -139 17 -12 47 20 -538 -580 -135 -137 -323 -331 -419 -430 -420
-433 -405 -419 -424 -402 -94 87 -383 380 -410 416 -19 25 -56 67 -82 94 -27
26 -46 47 -44 47 3 0 -38 43 -91 95 -52 53 -95 99 -95 103 0 4 -13 16 -30 27
-37 25 -45 43 -26 64 17 19 48 103 80 216 20 72 67 201 101 280 7 17 23 55 35
85 12 29 33 71 47 92 25 41 23 58 -7 58 -19 0 -60 -44 -60 -63 0 -6 -9 -29
-19 -51 -18 -37 -33 -76 -116 -296 -14 -36 -33 -92 -44 -125 -15 -48 -22 -60
-38 -58 -12 1 -20 -4 -20 -13 0 -9 7 -12 19 -8 17 5 17 0 -8 -47 l-26 -53 -61
65 c-33 35 -96 101 -140 147 -72 75 -78 84 -65 100 8 9 21 40 28 67 19 71 63
181 104 259 20 37 36 74 36 81 0 17 57 27 141 25 35 -1 204 1 375 4 249 4 328
3 395 -9 46 -8 101 -15 122 -15 26 0 37 -4 37 -15 0 -8 -6 -12 -14 -9 -18 7
-56 -34 -56 -60 0 -12 -11 -53 -24 -93 -14 -39 -28 -89 -32 -110 -3 -21 -10
-42 -14 -48 -5 -5 -23 -46 -40 -90 -17 -44 -40 -93 -50 -110 -21 -36 -112
-216 -133 -265 -26 -62 -36 -93 -57 -190 -11 -52 -26 -114 -32 -137 -15 -54
-2 -74 36 -54 13 8 22 19 20 26 -3 6 2 32 9 56 8 24 18 77 21 116 6 74 24 138
57 207 11 22 19 43 19 47 0 4 26 52 58 106 79 134 142 272 157 343 4 19 14 46
21 60 13 23 14 17 8 -52 -7 -87 0 -128 21 -128 25 0 45 39 34 69 -11 27 -10
42 18 227 l17 112 35 6 c51 8 128 7 114 -2 -15 -9 -67 -175 -133 -422 -19 -68
-68 -222 -137 -430 -14 -41 -43 -113 -66 -159 -30 -63 -41 -97 -42 -140 -2
-31 -10 -74 -19 -95 -9 -22 -14 -41 -12 -44 3 -2 -1 -21 -9 -41 -31 -83 -27
-109 15 -96 12 4 24 21 30 43 24 91 40 168 46 220 3 32 25 103 49 162 24 58
55 146 70 195 31 106 52 168 71 210 7 17 22 66 33 110 11 44 31 114 44 155 14
41 30 98 36 127 5 28 22 77 37 110 15 32 27 67 28 78 1 19 7 20 86 17 47 -2
87 -5 89 -8 2 -2 -3 -28 -12 -56 -21 -66 -57 -188 -62 -208 -2 -8 -10 -34 -19
-57 -8 -24 -13 -43 -10 -43 2 0 0 -10 -7 -21 -6 -12 -13 -31 -15 -43 -6 -37
-31 -120 -49 -161 -71 -166 -138 -349 -145 -395 -12 -79 -69 -301 -84 -325 -7
-11 -12 -33 -12 -50 1 -23 6 -31 23 -33 19 -3 24 5 42 65 35 118 70 268 80
336 10 69 58 202 118 327 19 41 46 116 59 165 39 151 100 340 126 388 6 12 12
28 12 37 5 46 30 99 50 103 33 7 966 5 966 -2z m-2967 -8 c4 -3 -1 -16 -12
-27 -10 -12 -24 -38 -31 -59 -6 -21 -16 -37 -21 -35 -11 4 -99 110 -99 120 0
10 154 11 163 1z m177 -7 c0 -2 -18 -48 -41 -103 -23 -54 -43 -113 -46 -130
-6 -39 -13 -41 -39 -10 -41 46 -54 74 -40 86 7 6 17 7 21 3 5 -4 5 -2 1 5 -5
8 -14 9 -30 3 -23 -8 -24 -7 -16 18 11 39 29 83 42 110 10 20 19 22 80 22 37
0 68 -2 68 -4z m169 -58 c-11 -27 -25 -62 -33 -76 -7 -15 -28 -72 -45 -127
-17 -55 -39 -109 -47 -120 -15 -19 -17 -19 -60 28 -36 40 -42 52 -34 67 6 10
10 28 10 40 0 11 16 53 36 93 20 39 42 88 49 107 10 29 18 36 46 40 19 3 48 3
66 1 l32 -3 -20 -50z m-449 -3092 c0 -3 -4 -8 -10 -11 -5 -3 -10 -1 -10 4 0 6
5 11 10 11 6 0 10 -2 10 -4z"/>
<path d="M6737 7244 c-12 -16 -22 -55 -27 -112 -12 -111 -41 -220 -140 -518
-44 -133 -80 -258 -80 -279 0 -21 -12 -63 -26 -92 -14 -30 -23 -61 -20 -69 3
-7 1 -16 -4 -19 -15 -9 -12 -22 6 -29 18 -7 47 11 39 25 -3 4 4 32 15 61 11
29 25 84 31 123 11 68 32 137 102 340 73 211 124 391 133 470 3 28 10 63 16
78 9 23 8 31 -3 38 -20 12 -22 11 -42 -17z"/>
<path d="M6924 7235 c-8 -13 -24 -55 -33 -92 -38 -146 -144 -493 -160 -523 -4
-8 -16 -48 -26 -88 -14 -58 -15 -75 -5 -87 17 -21 33 -19 58 8 26 27 28 52 7
61 -13 5 -14 10 -5 27 6 11 13 29 15 39 2 10 19 69 39 132 19 62 49 160 66
218 18 58 40 131 51 163 10 31 19 64 19 72 0 8 3 15 8 15 8 0 32 49 32 67 0
23 -48 15 -66 -12z"/>
<path d="M5674 7242 c-10 -6 -58 -147 -145 -427 -31 -100 -92 -278 -112 -325
-12 -30 -11 -25 -21 -75 -4 -22 -12 -45 -17 -52 -7 -7 -6 -19 3 -32 15 -24 26
-26 48 -8 17 14 17 14 23 85 3 29 14 76 25 105 24 62 40 111 92 277 34 111 72
222 130 385 12 34 14 54 8 63 -12 14 -18 15 -34 4z"/>
<path d="M7113 7228 c-8 -13 -13 -33 -71 -258 -17 -63 -39 -139 -51 -168 -33
-84 -26 -126 19 -102 12 6 20 21 20 35 0 13 9 44 19 67 11 24 25 74 32 113 6
38 27 116 46 174 19 58 33 114 31 125 -3 24 -32 33 -45 14z"/>
<path d="M7276 7208 c-21 -49 -63 -174 -81 -247 -18 -69 -11 -90 22 -73 13 7
25 37 40 101 12 50 38 123 58 162 19 38 33 74 30 80 -4 5 -17 9 -30 9 -17 0
-28 -9 -39 -32z"/>
<path d="M5216 7223 c-12 -12 -32 -64 -87 -218 -28 -77 -61 -169 -75 -205 -28
-76 -30 -98 -9 -106 20 -8 45 13 45 37 0 40 95 305 146 406 21 42 28 66 22 77
-10 17 -30 21 -42 9z"/>
<path d="M5890 7188 c-11 -12 -20 -30 -20 -41 0 -10 -14 -51 -31 -90 -18 -40
-44 -108 -59 -152 -25 -72 -41 -111 -85 -210 -7 -16 -27 -70 -43 -120 -17 -49
-42 -121 -56 -160 -25 -66 -56 -176 -56 -195 0 -5 9 -14 19 -19 16 -9 22 -5
39 32 11 23 23 62 27 87 4 25 18 72 31 106 13 33 33 95 43 137 11 42 27 86 35
99 14 21 38 83 106 268 15 41 46 117 69 169 33 73 39 96 29 102 -19 13 -25 11
-48 -13z"/>
<path d="M5363 6653 c9 -2 23 -2 30 0 6 3 -1 5 -18 5 -16 0 -22 -2 -12 -5z"/>
<path d="M5150 6616 c0 -2 7 -6 15 -10 8 -3 15 -1 15 4 0 6 -7 10 -15 10 -8 0
-15 -2 -15 -4z"/>
<path d="M6000 6360 c0 -6 7 -10 15 -10 8 0 15 2 15 4 0 2 -7 6 -15 10 -8 3
-15 1 -15 -4z"/>
<path d="M9755 9591 c-16 -9 -52 -46 -78 -82 -27 -35 -59 -76 -72 -91 -55 -66
-38 -88 77 -98 47 -5 100 -16 118 -25 27 -14 31 -20 25 -43 -12 -47 -139 -142
-167 -125 -5 2 -8 17 -8 34 0 35 -25 40 -36 7 -10 -29 -6 -57 12 -85 30 -47
105 -19 197 74 63 65 82 107 63 144 -11 24 -65 56 -108 64 -12 3 -39 8 -58 12
-19 4 -41 6 -47 5 -20 -4 -16 7 20 56 70 98 110 121 149 86 14 -14 20 -14 33
-4 20 17 19 20 -16 58 -34 36 -59 39 -104 13z"/>
<path d="M10057 9478 c-34 -26 -48 -87 -53 -222 -3 -72 -7 -146 -10 -165 -5
-30 -7 -31 -18 -15 -19 26 -83 13 -113 -23 -60 -71 -73 -162 -28 -200 14 -13
36 -23 48 -23 31 0 84 34 92 59 9 31 22 26 30 -11 12 -53 34 -88 55 -88 24 0
24 5 4 61 -12 34 -16 80 -15 204 1 198 16 329 42 374 30 50 9 80 -34 49z m-67
-491 c0 -47 -94 -117 -121 -90 -16 16 3 73 36 109 29 31 34 33 58 21 20 -9 27
-20 27 -40z"/>
<path d="M4859 9227 c-15 -23 -39 -67 -54 -97 -38 -75 -147 -252 -200 -325
-44 -59 -54 -88 -35 -100 19 -12 66 24 113 87 26 35 57 69 69 77 21 13 21 13
14 -66 -5 -60 -3 -84 8 -98 13 -18 15 -18 39 -2 24 16 94 116 202 290 30 50
76 104 126 150 60 55 76 74 67 84 -16 19 -45 7 -100 -41 -52 -45 -66 -64 -189
-246 l-84 -125 -6 49 c-5 48 -26 76 -56 76 -19 0 -16 11 15 61 15 24 43 71 61
104 19 33 50 75 70 92 30 27 34 36 25 50 -6 10 -22 19 -35 20 -19 2 -30 -7
-50 -40z"/>
<path d="M5398 9173 c-9 -10 -38 -63 -66 -118 -95 -190 -112 -212 -190 -251
-84 -41 -109 -43 -118 -10 -10 42 -1 59 30 61 34 1 86 54 86 88 0 27 -17 47
-40 47 -25 0 -98 -56 -120 -93 -41 -67 -12 -164 55 -181 27 -7 86 18 141 60
31 23 32 23 37 4 6 -24 34 -26 64 -5 19 13 20 19 12 45 -9 25 -7 36 15 72 14
24 43 78 65 120 23 42 54 92 71 111 16 19 30 42 30 51 0 22 -52 21 -72 -1z"/>
<path d="M5584 9142 c-53 -35 -92 -81 -149 -172 -38 -63 -52 -77 -87 -90 -27
-9 -44 -23 -46 -35 -5 -22 23 -46 44 -38 10 4 14 -4 14 -30 0 -47 16 -87 34
-87 39 0 72 90 44 118 -17 17 -5 24 64 38 74 15 89 7 61 -33 -27 -39 -36 -88
-18 -103 16 -13 67 -1 117 28 25 15 29 14 46 -1 10 -9 26 -17 36 -17 21 0 32
28 17 43 -17 17 -13 44 15 95 l26 46 -36 33 c-20 18 -42 33 -50 33 -8 0 -38
-23 -67 -52 -44 -44 -53 -49 -61 -35 -7 13 -23 17 -68 17 -33 0 -60 4 -60 8 0
18 61 100 105 141 42 39 47 42 59 26 11 -15 15 -16 35 -4 18 11 21 20 17 43
-7 33 -23 56 -40 56 -6 0 -29 -12 -52 -28z m103 -298 c-9 -25 -25 -46 -45 -57
-18 -11 -32 -14 -32 -9 0 13 80 115 86 109 2 -2 -2 -21 -9 -43z"/>
<path d="M5980 8954 c-95 -33 -129 -71 -157 -176 -17 -64 -17 -69 0 -85 16
-16 18 -16 44 3 15 12 36 43 46 70 11 27 25 64 31 82 17 45 29 54 62 50 40 -4
44 -28 5 -28 -43 0 -52 -26 -20 -54 13 -12 30 -33 38 -48 7 -14 37 -38 67 -53
44 -22 63 -27 98 -22 63 9 96 26 96 52 0 20 -2 21 -61 11 -53 -9 -65 -8 -97 9
-20 11 -37 25 -38 30 -2 6 24 32 57 58 42 35 59 55 59 73 0 21 -5 24 -36 24
-20 0 -49 -9 -65 -21 l-29 -21 -18 21 c-18 21 -57 33 -82 25z"/>
<path d="M6480 8615 c-18 -22 6 -95 31 -95 32 0 40 67 11 93 -23 21 -26 21
-42 2z"/>
<path d="M5830 8537 c-74 -37 -217 -171 -243 -227 -8 -19 -19 -59 -23 -87 -6
-49 -5 -54 23 -82 54 -54 148 -50 246 10 26 16 49 29 52 29 3 0 5 -12 5 -27 1
-40 24 -66 50 -58 19 6 21 12 16 43 -10 61 -7 90 15 126 26 44 22 76 -13 96
-25 13 -29 13 -44 -1 -9 -9 -19 -40 -22 -70 -7 -50 -9 -54 -57 -82 -96 -57
-162 -70 -203 -41 -25 17 -27 42 -8 97 24 65 68 118 149 178 88 66 153 85 186
55 22 -20 45 -21 60 -2 19 22 2 44 -47 60 -61 21 -67 21 -142 -17z"/>
<path d="M6124 8356 c-57 -25 -144 -146 -144 -200 0 -28 25 -46 63 -46 14 0
48 16 77 35 49 33 52 34 76 18 23 -15 28 -15 60 0 43 21 41 22 48 -7 7 -30 32
-40 55 -23 67 47 125 117 103 125 -8 2 -6 11 5 28 11 17 13 28 6 35 -13 13
-50 -8 -100 -54 -17 -16 -36 -26 -42 -23 -6 4 -29 -3 -52 -14 -22 -12 -43 -19
-46 -17 -2 3 3 19 12 36 18 37 13 51 -19 51 -15 0 -31 -11 -42 -27 -33 -53
-124 -117 -140 -100 -3 3 4 23 15 46 23 45 91 91 135 91 34 0 46 28 21 46 -23
17 -51 17 -91 0z"/>
<path d="M6604 8328 c-16 -13 -30 -26 -32 -30 -2 -4 -17 -23 -33 -44 -33 -42
-39 -84 -11 -84 10 0 47 27 81 60 35 33 67 57 72 54 14 -8 11 -50 -6 -91 -19
-45 -19 -56 3 -83 22 -28 52 -18 52 18 0 14 5 51 12 82 15 74 6 104 -36 124
-46 22 -68 20 -102 -6z"/>
<path d="M816 7571 c-33 -35 -40 -96 -20 -191 7 -36 14 -89 14 -117 0 -51 -1
-53 -28 -53 -63 0 -59 -48 6 -78 l37 -17 3 -95 c4 -159 12 -210 35 -233 19
-19 20 -19 34 -2 16 23 17 158 2 271 l-12 82 42 43 c65 67 104 151 102 221 -1
69 -14 104 -49 141 -60 64 -122 74 -166 28z m89 -33 c42 -19 70 -75 70 -139 0
-47 -6 -66 -37 -115 -20 -33 -40 -59 -44 -59 -5 0 -10 24 -11 54 -4 60 -26
121 -44 121 -16 0 -7 113 10 134 16 19 22 20 56 4z"/>
<path d="M4445 7100 c-12 -37 33 -68 52 -37 4 8 17 19 28 26 19 12 19 12 -2 8
-13 -3 -24 1 -27 9 -8 21 -44 17 -51 -6z"/>
<path d="M1221 7025 c-6 -22 -16 -68 -22 -102 -6 -35 -13 -63 -16 -63 -3 0
-14 11 -25 25 -27 34 -65 34 -74 -1 l-7 -26 -37 43 c-35 41 -39 43 -64 31 -35
-16 -34 -47 3 -66 33 -18 38 -28 46 -98 10 -87 14 -98 35 -98 23 0 33 18 50
88 l12 54 29 -31 c45 -49 82 -35 93 36 14 81 14 211 1 229 -12 17 -14 15 -24
-21z"/>
<path d="M7666 6913 c-7 -52 9 -81 38 -70 12 5 16 21 16 62 0 51 -2 55 -24 55
-20 0 -24 -6 -30 -47z"/>
<path d="M4446 6932 c-10 -17 -14 -215 -5 -239 8 -21 13 -23 46 -18 60 9 113
27 113 38 0 6 -17 7 -41 4 -28 -4 -39 -2 -36 6 2 7 22 15 45 18 60 8 66 23 7
16 -28 -3 -57 -7 -65 -9 -11 -2 -15 14 -17 81 -1 46 -4 90 -7 97 -6 15 -32 19
-40 6z"/>
<path d="M7663 6754 c-10 -26 10 -69 32 -69 16 0 21 8 23 43 3 39 2 42 -23 42
-14 0 -28 -7 -32 -16z"/>
<path d="M4723 6748 c-26 -12 -32 -33 -7 -24 9 3 27 6 41 6 21 0 24 2 13 15
-14 17 -17 17 -47 3z"/>
<path d="M4648 6743 c7 -3 16 -2 19 1 4 3 -2 6 -13 5 -11 0 -14 -3 -6 -6z"/>
<path d="M4466 6641 c-38 -41 -23 -151 20 -151 18 0 46 25 37 34 -4 3 1 6 10
6 9 0 19 5 23 11 4 7 -4 10 -22 7 -25 -3 -29 1 -32 25 -2 16 2 35 8 42 15 18
6 45 -13 45 -8 0 -22 -8 -31 -19z"/>
<path d="M7684 6542 c-18 -11 -26 -48 -18 -87 5 -29 10 -35 27 -33 16 2 22 12
25 42 4 42 -4 86 -16 86 -4 0 -12 -4 -18 -8z"/>
<path d="M4463 6345 c-28 -42 -29 -81 -4 -119 18 -26 18 -33 5 -75 -7 -25 -14
-83 -14 -128 0 -80 1 -83 25 -89 17 -4 32 -1 44 10 10 9 22 16 27 16 6 0 19 7
30 16 18 14 16 15 -30 10 l-49 -6 8 78 c4 42 6 97 5 122 -3 78 -2 144 1 170 6
38 -23 35 -48 -5z"/>
<path d="M7670 6291 c-23 -44 0 -111 34 -98 12 5 16 20 16 62 0 48 -2 55 -20
55 -10 0 -24 -9 -30 -19z"/>
<path d="M7680 6116 c-6 -8 -13 -42 -17 -78 -4 -51 -2 -66 11 -77 8 -7 22 -11
30 -8 20 8 22 163 1 170 -7 3 -18 0 -25 -7z"/>
<path d="M7671 5822 c-5 -10 -7 -100 -5 -217 5 -207 10 -265 22 -265 29 1 31
20 28 250 -2 129 -4 238 -5 243 -2 14 -30 7 -40 -11z"/>
<path d="M1010 5820 c-83 -20 -137 -130 -180 -370 -12 -63 -32 -149 -44 -190
-33 -105 -40 -174 -22 -189 22 -18 46 0 62 45 25 70 76 238 91 302 12 50 18
62 34 62 62 0 161 92 192 176 32 90 17 147 -42 164 -40 11 -43 11 -91 0z m80
-71 c17 -31 2 -94 -33 -138 -31 -39 -91 -80 -101 -70 -3 3 1 29 9 59 20 74 19
80 -10 80 -34 0 -32 10 10 53 29 30 43 37 75 37 30 0 42 -5 50 -21z"/>
<path d="M4470 5770 c-21 -13 -25 -117 -5 -164 16 -38 16 -38 35 -18 11 11 29
23 40 27 11 4 18 11 15 16 -4 5 -14 5 -25 -1 -10 -5 -21 -10 -24 -10 -3 0 -6
33 -6 74 0 77 -6 91 -30 76z"/>
<path d="M1273 5703 c-12 -2 -31 -19 -42 -36 -21 -35 -55 -146 -66 -214 -5
-35 -11 -43 -34 -48 -31 -6 -71 -54 -106 -124 -30 -59 -31 -75 -5 -101 27 -27
62 -25 97 4 29 24 30 25 46 5 17 -19 37 -25 37 -11 0 4 1 54 2 112 1 145 49
318 105 382 14 16 11 40 -5 37 -4 -1 -17 -4 -29 -6z m-126 -380 c-3 -10 -8
-29 -11 -43 -3 -14 -19 -33 -36 -43 -32 -20 -36 -14 -19 30 18 49 77 99 66 56z"/>
<path d="M5578 5604 c-19 -6 -33 -53 -20 -66 6 -6 20 -7 33 -2 13 5 46 8 73 9
53 0 82 23 59 46 -12 12 -115 21 -145 13z"/>
<path d="M4684 5590 c-28 -11 -36 -24 -28 -44 5 -13 21 -16 97 -13 81 2 92 5
95 22 3 10 -4 25 -14 32 -20 15 -117 17 -150 3z"/>
<path d="M5132 5580 c-27 -44 -3 -83 35 -55 10 9 42 14 76 15 44 0 59 4 64 16
11 28 -25 44 -97 44 -54 0 -67 -3 -78 -20z"/>
<path d="M3945 5583 c-29 -8 -45 -23 -45 -44 0 -17 7 -19 85 -16 92 4 117 15
99 45 -11 17 -94 26 -139 15z"/>
<path d="M4308 5580 c-20 -12 -25 -66 -7 -72 7 -2 39 2 73 9 92 19 87 24 80
-70 -6 -70 -4 -85 10 -96 13 -11 22 -11 39 -4 12 6 36 16 54 23 18 7 38 19 45
28 12 14 7 15 -43 9 l-55 -7 -2 43 c-4 86 -12 114 -37 125 -36 17 -137 24
-157 12z"/>
<path d="M2609 5537 c-20 -43 -6 -58 43 -50 24 4 57 8 73 8 17 0 36 6 44 13
24 23 -9 44 -83 49 -63 5 -66 5 -77 -20z"/>
<path d="M2953 5553 c-12 -9 -7 -53 6 -53 3 0 41 -2 84 -4 67 -2 77 -1 77 14
0 10 -7 23 -15 30 -18 15 -135 25 -152 13z"/>
<path d="M3370 5534 c-20 -52 -3 -79 31 -48 14 12 43 19 99 23 87 7 105 15 76
37 -14 10 -48 14 -108 14 -86 0 -89 -1 -98 -26z"/>
<path d="M2292 5538 c-18 -18 -14 -46 8 -58 13 -7 33 -7 65 0 25 6 56 8 69 4
31 -7 42 11 25 42 -11 22 -19 24 -84 24 -42 0 -76 -5 -83 -12z"/>
<path d="M1980 5523 c-14 -9 -27 -18 -29 -19 -2 -2 1 -10 8 -18 12 -14 98 -21
134 -10 25 8 21 39 -8 52 -36 17 -76 15 -105 -5z"/>
<path d="M7478 5473 c7 -3 16 -2 19 1 4 3 -2 6 -13 5 -11 0 -14 -3 -6 -6z"/>
<path d="M4760 5416 c0 -11 10 -16 32 -16 34 0 29 13 -9 25 -17 5 -23 2 -23
-9z"/>
<path d="M7345 5350 c3 -5 8 -10 11 -10 2 0 4 5 4 10 0 6 -5 10 -11 10 -5 0
-7 -4 -4 -10z"/>
<path d="M4459 5243 c-19 -49 7 -121 33 -95 6 6 16 8 23 6 7 -3 16 -1 20 5 3
6 17 11 30 11 13 0 26 4 29 9 4 5 -14 7 -39 4 -44 -4 -45 -4 -45 26 0 63 -32
84 -51 34z"/>
<path d="M5375 5210 c-3 -5 1 -10 10 -10 9 0 13 5 10 10 -3 6 -8 10 -10 10 -2
0 -7 -4 -10 -10z"/>
<path d="M4578 5203 c7 -3 16 -2 19 1 4 3 -2 6 -13 5 -11 0 -14 -3 -6 -6z"/>
<path d="M7671 5109 c-17 -50 -14 -87 10 -99 31 -17 46 9 39 73 -6 63 -31 76
-49 26z"/>
<path d="M6410 5040 c0 -5 5 -10 11 -10 5 0 7 5 4 10 -3 6 -8 10 -11 10 -2 0
-4 -4 -4 -10z"/>
<path d="M6777 5038 c2 -5 10 -8 18 -8 8 0 16 3 18 8 3 4 -5 7 -18 7 -13 0
-21 -3 -18 -7z"/>
<path d="M9350 5020 c0 -5 5 -10 10 -10 6 0 10 5 10 10 0 6 -4 10 -10 10 -5 0
-10 -4 -10 -10z"/>
<path d="M7679 4894 c-20 -24 -4 -164 19 -164 24 1 31 20 28 87 -4 92 -17 113
-47 77z"/>
<path d="M4470 4884 c-17 -20 -18 -80 -2 -96 9 -9 22 -8 54 3 24 7 51 12 61
11 9 -1 17 5 17 13 0 16 34 16 129 0 31 -6 42 -5 37 3 -3 6 -14 11 -24 11 -40
1 -92 14 -92 22 0 5 -5 9 -11 9 -5 0 -8 -4 -4 -9 3 -6 -3 -9 -12 -9 -10 1 -39
-2 -65 -6 l-47 -6 -3 32 c-3 36 -19 46 -38 22z"/>
<path d="M4595 4860 c4 -6 11 -8 16 -5 14 9 11 15 -7 15 -8 0 -12 -5 -9 -10z"/>
<path d="M4466 4628 c-9 -35 -7 -151 3 -167 9 -15 49 -12 124 9 34 10 52 30
26 30 -20 0 2 20 24 21 17 1 18 2 4 6 -9 2 -37 -3 -62 -12 -65 -25 -74 -18
-77 62 -2 53 -7 68 -19 71 -10 2 -19 -6 -23 -20z"/>
<path d="M7682 4633 c-10 -19 -8 -145 3 -163 8 -14 32 -13 41 2 4 6 6 32 5 57
-2 25 -4 62 -5 81 -1 39 -28 53 -44 23z"/>
<path d="M4788 4473 c7 -3 16 -2 19 1 4 3 -2 6 -13 5 -11 0 -14 -3 -6 -6z"/>
<path d="M7680 4261 c-21 -41 -6 -99 24 -88 32 12 33 107 1 107 -8 0 -19 -9
-25 -19z"/>
<path d="M5045 4131 c-3 -5 -1 -12 5 -16 5 -3 10 1 10 9 0 18 -6 21 -15 7z"/>
<path d="M9450 4010 c-8 -5 -11 -12 -7 -16 4 -4 13 -2 19 4 6 6 10 14 7 16 -2
3 -11 1 -19 -4z"/>
<path d="M4480 3860 c-12 -23 -3 -117 12 -126 5 -4 15 -1 21 5 6 6 17 11 23
11 7 0 24 4 38 10 36 13 24 41 -15 36 -26 -3 -29 0 -29 24 0 58 -28 81 -50 40z"/>
<path d="M7684 3675 c-10 -24 6 -103 21 -109 29 -11 36 20 26 112 -2 17 -40
15 -47 -3z"/>
<path d="M7365 3650 c-3 -5 -2 -10 4 -10 5 0 13 5 16 10 3 6 2 10 -4 10 -5 0
-13 -4 -16 -10z"/>
<path d="M7025 3620 c-3 -5 -4 -10 -1 -10 2 0 11 -3 19 -6 8 -3 17 2 20 10 7
18 -27 23 -38 6z"/>
<path d="M4487 3433 c-13 -12 -7 -70 7 -82 11 -10 21 -9 45 3 16 9 37 16 46
16 8 0 15 5 15 10 0 6 -15 9 -32 8 -29 -3 -33 0 -36 25 -3 26 -28 37 -45 20z"/>
<path d="M7690 3355 c-5 -13 -10 -56 -12 -95 -2 -56 2 -74 16 -88 16 -16 18
-16 28 3 12 21 15 176 3 194 -11 18 -25 12 -35 -14z"/>
<path d="M7438 3223 c7 -3 16 -2 19 1 4 3 -2 6 -13 5 -11 0 -14 -3 -6 -6z"/>
<path d="M4494 3125 c-8 -20 0 -233 9 -242 4 -3 13 0 20 9 6 9 21 20 32 26 20
11 19 11 -2 12 -21 0 -22 2 -16 83 4 55 2 91 -6 105 -14 26 -29 28 -37 7z"/>
<path d="M7689 3093 c-7 -17 -9 -67 -6 -128 3 -55 3 -118 -1 -140 -11 -64 -4
-105 19 -105 10 0 19 3 20 8 2 13 10 296 9 327 -1 66 -22 86 -41 38z"/>
<path d="M7680 2544 c-14 -35 -4 -64 21 -64 25 0 33 22 22 57 -13 37 -31 40
-43 7z"/>
<path d="M4486 2524 c-9 -22 12 -57 31 -50 8 3 17 6 19 6 2 0 4 14 4 30 0 25
-4 30 -24 30 -13 0 -27 -7 -30 -16z"/>
<path d="M10152 2482 c-30 -5 -61 -71 -62 -130 0 -28 -5 -45 -14 -48 -48 -19
-94 -366 -67 -508 10 -54 44 -97 62 -79 8 8 22 6 53 -8 23 -10 62 -20 86 -21
42 -3 45 -1 82 47 62 82 73 127 73 305 0 176 -5 197 -84 333 -48 84 -86 116
-129 109z m78 -132 c16 -32 34 -61 39 -64 19 -12 51 -136 50 -198 -1 -163 -26
-267 -78 -327 -18 -21 -19 -21 -71 -4 l-52 17 7 55 c4 31 9 170 11 309 2 152
8 260 14 272 17 31 45 9 80 -60z m-140 -413 c-8 -43 -16 -67 -23 -64 -23 8 -7
245 21 307 13 27 14 -174 2 -243z"/>
<path d="M10633 2328 c-30 -37 -63 -249 -63 -404 0 -33 -3 -64 -7 -67 -3 -4
-17 3 -30 15 -22 21 -23 21 -44 2 -42 -38 -70 -93 -72 -145 -2 -43 2 -54 22
-70 29 -24 64 -19 98 13 26 24 28 20 36 -51 3 -24 10 -48 15 -53 25 -25 31 8
31 165 0 181 14 394 32 476 6 29 20 62 31 73 10 10 18 27 16 36 -4 21 -51 28
-65 10z m-89 -524 c24 -9 19 -37 -12 -67 -37 -36 -64 -36 -58 -1 6 30 32 74
45 74 5 0 16 -3 25 -6z"/>
<path d="M7690 2284 c-21 -54 -10 -114 21 -114 20 0 32 31 25 65 -3 11 -5 30
-5 41 -1 33 -30 39 -41 8z"/>
<path d="M9671 2284 c0 -11 3 -14 6 -6 3 7 2 16 -1 19 -3 4 -6 -2 -5 -13z"/>
<path d="M4506 2254 c-12 -11 -16 -36 -16 -95 l0 -79 -29 0 c-17 0 -33 -5 -36
-10 -4 -7 2 -9 18 -5 18 5 30 1 45 -15 12 -13 27 -20 36 -17 13 5 16 26 16
116 0 60 -4 112 -9 116 -5 3 -17 -2 -25 -11z"/>
<path d="M9670 2235 c0 -13 5 -27 10 -30 6 -3 10 -2 10 4 0 5 3 16 6 24 3 8
-2 17 -10 20 -12 5 -16 0 -16 -18z"/>
<path d="M9680 2104 c0 -8 5 -12 10 -9 6 3 10 10 10 16 0 5 -4 9 -10 9 -5 0
-10 -7 -10 -16z"/>
<path d="M7702 2028 c-15 -15 -16 -94 -2 -103 29 -18 52 51 34 99 -7 19 -16
20 -32 4z"/>
<path d="M9685 2020 c3 -5 8 -10 11 -10 2 0 4 5 4 10 0 6 -5 10 -11 10 -5 0
-7 -4 -4 -10z"/>
<path d="M7380 1990 c-7 -13 -7 -20 -1 -20 6 0 15 9 21 20 7 13 7 20 1 20 -6
0 -15 -9 -21 -20z"/>
<path d="M9690 1915 c0 -8 2 -15 4 -15 2 0 6 7 10 15 3 8 1 15 -4 15 -6 0 -10
-7 -10 -15z"/>
<path d="M4506 1838 c-8 -30 -8 -152 0 -172 8 -20 28 -21 43 -2 7 8 26 18 42
21 39 9 37 26 -3 23 -31 -3 -31 -3 -35 52 -5 77 -11 100 -27 100 -8 0 -16 -10
-20 -22z"/>
<path d="M7718 1738 c-23 -8 -28 -16 -28 -43 0 -34 22 -61 40 -50 5 3 10 12
10 20 0 7 11 16 25 19 27 7 33 34 13 54 -14 14 -23 14 -60 0z"/>
<path d="M6952 1498 c-14 -14 -16 -28 -2 -28 5 0 14 9 20 20 12 22 1 27 -18 8z"/>
<path d="M4517 1453 c-11 -10 -8 -81 3 -88 16 -10 40 14 40 40 0 45 -22 70
-43 48z"/>
<path d="M8826 1415 c-11 -8 -15 -15 -10 -15 6 0 19 7 30 15 10 8 15 14 9 14
-5 0 -19 -6 -29 -14z"/>
<path d="M9140 1416 c0 -2 7 -7 16 -10 8 -3 12 -2 9 4 -6 10 -25 14 -25 6z"/>
<path d="M10073 1248 c-27 -30 -48 -73 -63 -128 -6 -25 -18 -50 -26 -56 -11
-9 -12 -18 -4 -38 6 -17 6 -26 0 -26 -6 0 -5 -9 2 -20 11 -17 10 -22 -1 -29
-7 -5 -9 -11 -3 -14 5 -4 9 -30 9 -59 1 -81 35 -166 84 -210 48 -44 84 -49
144 -18 40 20 46 19 85 -20 13 -14 124 -82 146 -90 19 -7 26 -6 30 4 6 16 -37
59 -124 127 -37 28 -52 46 -49 57 3 10 22 58 41 107 19 50 35 104 36 121 1 89
-65 199 -136 229 -19 8 -48 30 -65 49 -37 43 -75 47 -106 14z m113 -138 c5
-32 10 -37 31 -37 14 0 21 2 17 6 -5 3 -10 19 -12 35 -3 28 -3 29 20 14 13 -8
36 -36 52 -61 38 -62 41 -139 7 -214 -21 -48 -25 -52 -51 -46 -22 4 -29 1 -35
-16 -3 -12 -4 -34 0 -49 5 -24 2 -30 -20 -40 -14 -7 -34 -12 -44 -12 -33 0
-78 53 -95 110 -16 54 -22 171 -9 183 3 4 8 22 10 39 11 114 114 184 129 88z"/>
<path d="M10110 1050 c0 -5 7 -10 15 -10 8 0 15 5 15 10 0 6 -7 10 -15 10 -8
0 -15 -4 -15 -10z"/>
<path d="M10290 1250 c-13 -8 -12 -10 3 -10 9 0 17 5 17 10 0 12 -1 12 -20 0z"/>
<path d="M7680 1073 c-91 -35 -245 -263 -286 -424 -43 -166 24 -284 149 -265
28 4 59 18 77 33 l30 25 19 -23 c56 -72 59 -74 72 -62 10 10 7 23 -14 64 -33
62 -33 64 -1 106 58 76 75 148 59 245 -17 94 -27 118 -65 162 -50 57 -78 47
-100 -32 -19 -74 7 -112 34 -48 8 18 19 37 25 40 16 10 41 -48 56 -135 13 -72
13 -85 -2 -122 -17 -42 -44 -86 -53 -87 -3 0 -13 18 -24 40 -20 41 -36 53 -61
44 -23 -9 -18 -53 10 -86 32 -38 29 -56 -14 -85 -42 -28 -97 -30 -131 -3 -23
17 -25 25 -24 92 0 88 30 174 102 291 80 131 182 219 182 157 0 -9 10 -25 21
-36 l22 -19 -5 48 c-8 67 -36 96 -78 80z"/>
<path d="M9855 1040 c3 -5 11 -10 16 -10 6 0 7 5 4 10 -3 6 -11 10 -16 10 -6
0 -7 -4 -4 -10z"/>
<path d="M4149 1007 c-48 -32 -113 -160 -134 -266 -24 -115 -17 -214 18 -274
43 -73 91 -94 165 -72 25 8 46 13 47 12 0 -1 12 -24 26 -51 32 -62 53 -77 74
-55 15 15 14 19 -8 53 -37 53 -44 108 -19 148 57 94 80 155 87 228 6 69 4 80
-23 135 -31 64 -90 135 -113 135 -8 0 -23 7 -33 15 -27 21 -47 19 -87 -8z
m144 -102 c69 -70 81 -174 31 -285 -32 -72 -51 -91 -68 -69 -16 23 -51 32 -63
17 -13 -17 -11 -28 11 -60 22 -33 16 -44 -30 -57 -45 -12 -69 0 -94 49 -37 73
-34 164 11 300 l18 55 0 -43 c1 -48 18 -54 36 -12 30 71 53 106 75 117 35 18
44 16 73 -12z"/>
<path d="M9905 1000 c3 -5 8 -10 11 -10 2 0 4 5 4 10 0 6 -5 10 -11 10 -5 0
-7 -4 -4 -10z"/>
<path d="M9750 991 c0 -5 5 -13 10 -16 6 -3 10 -2 10 4 0 5 -4 13 -10 16 -5 3
-10 2 -10 -4z"/>
<path d="M1110 942 c-44 -24 -80 -76 -121 -172 -46 -108 -49 -176 -12 -263 38
-88 76 -117 150 -117 67 0 100 16 145 72 77 95 118 198 118 294 0 57 -16 81
-87 125 -18 11 -33 26 -33 34 0 21 -22 32 -75 39 -39 5 -58 3 -85 -12z m125
-92 c22 -10 55 -32 74 -49 32 -28 33 -33 28 -76 -15 -105 -123 -273 -178 -276
-92 -5 -140 57 -142 181 -1 54 5 77 32 136 31 68 50 87 96 97 37 8 50 7 90
-13z"/>
<path d="M9765 920 c-3 -5 -1 -10 4 -10 6 0 11 5 11 10 0 6 -2 10 -4 10 -3 0
-8 -4 -11 -10z"/>
<path d="M4643 878 c-30 -34 -51 -109 -64 -233 -6 -60 -13 -112 -15 -114 -3
-3 -18 3 -34 12 -36 22 -56 13 -92 -40 -64 -92 -55 -173 18 -173 27 0 44 8 69
33 l33 33 7 -73 c8 -82 37 -132 69 -120 15 6 15 10 1 43 -36 87 -3 506 47 595
19 34 20 41 8 49 -21 14 -24 13 -47 -12z m-109 -420 c-12 -22 -47 -58 -56 -58
-14 0 -9 33 9 52 18 21 58 25 47 6z"/>
<path d="M9695 835 c-23 -19 -26 -25 -12 -25 9 0 17 5 17 10 0 6 11 10 25 10
16 0 25 -6 25 -15 0 -11 9 -15 30 -13 30 2 43 18 15 18 -8 0 -15 7 -15 15 0 8
-6 15 -14 15 -8 0 -20 2 -28 5 -7 2 -26 -7 -43 -20z"/>
<path d="M9588 823 c7 -3 16 -2 19 1 4 3 -2 6 -13 5 -11 0 -14 -3 -6 -6z"/>
<path d="M9781 774 c0 -11 3 -14 6 -6 3 7 2 16 -1 19 -3 4 -6 -2 -5 -13z"/>
<path d="M9815 780 c-3 -5 -1 -10 4 -10 6 0 11 5 11 10 0 6 -2 10 -4 10 -3 0
-8 -4 -11 -10z"/>
<path d="M9580 769 c0 -5 5 -7 10 -4 6 3 10 8 10 11 0 2 -4 4 -10 4 -5 0 -10
-5 -10 -11z"/>
<path d="M9718 760 c-9 -10 -14 -21 -11 -23 3 -3 -4 -3 -16 0 -12 3 -21 9 -21
14 0 5 -9 9 -21 9 -11 0 -17 -4 -14 -10 4 -6 1 -17 -5 -25 -10 -12 -9 -15 3
-15 8 0 17 4 19 9 2 6 24 5 57 0 54 -10 81 -7 81 9 0 5 -14 8 -32 6 l-32 -4
22 20 c12 12 22 23 22 25 0 12 -37 1 -52 -15z"/>
<path d="M3430 629 c0 -11 4 -18 10 -14 5 3 7 12 3 20 -7 21 -13 19 -13 -6z"/>
<path d="M7858 542 c-14 -15 -40 -39 -57 -53 -26 -22 -30 -31 -22 -50 7 -20
16 -25 52 -27 48 -3 69 -21 69 -59 0 -16 -9 -27 -31 -36 l-31 -12 20 -24 c18
-23 21 -24 51 -11 38 15 51 37 51 82 0 57 -19 107 -46 121 l-26 14 26 16 c30
20 33 35 9 53 -25 19 -35 17 -65 -14z"/>
</g>
</svg>
