<?xml version="1.0" standalone="no"?>
<!DOCTYPE svg PUBLIC "-//W3C//DTD SVG 20010904//EN"
 "http://www.w3.org/TR/2001/REC-SVG-20010904/DTD/svg10.dtd">
<svg version="1.0" xmlns="http://www.w3.org/2000/svg"
 width="1101.000000pt" height="1017.000000pt" viewBox="0 0 1101.000000 1017.000000"
 preserveAspectRatio="xMidYMid meet">
<metadata>
Created by potrace 1.16, written by Peter Selinger 2001-2019
</metadata>
<g transform="translate(0.000000,1017.000000) scale(0.100000,-0.100000)"
fill="#000000" stroke="none">
<path d="M900 9621 c-44 -18 -90 -68 -90 -99 0 -10 8 -6 25 12 70 75 249 91
271 24 7 -23 -29 -145 -63 -213 -14 -27 -49 -82 -77 -122 -75 -105 -105 -94
-106 39 0 20 -4 39 -9 42 -11 7 -21 -42 -21 -104 0 -30 -6 -52 -15 -60 -20
-17 -19 -32 4 -62 14 -17 21 -47 26 -108 10 -141 24 -205 47 -219 17 -11 22
-10 29 1 10 16 2 108 -12 124 -5 6 -14 51 -20 100 -6 49 -16 92 -23 96 -8 6
-8 8 2 8 16 0 156 189 192 259 36 73 60 154 60 207 0 36 -5 46 -30 64 -43 31
-131 36 -190 11z"/>
<path d="M1334 8733 c4 -148 7 -349 7 -448 1 -129 4 -172 11 -150 5 18 7 154
4 335 -3 168 -6 356 -6 418 0 73 -4 112 -11 112 -7 0 -9 -79 -5 -267z"/>
<path d="M8632 8967 c-58 -44 -192 -235 -192 -274 0 -28 32 -43 94 -43 83 0
148 -23 186 -66 34 -39 38 -73 12 -94 -80 -67 -94 -73 -171 -78 -68 -4 -78 -2
-95 17 -22 24 -36 27 -36 8 0 -38 89 -78 155 -70 78 10 198 100 198 149 0 62
-40 112 -130 160 -22 12 -84 23 -140 23 -18 1 -33 6 -33 11 0 22 93 151 133
185 52 44 85 54 103 30 15 -20 34 -12 34 16 0 16 -52 59 -70 59 -3 0 -24 -15
-48 -33z"/>
<path d="M8982 8827 c-24 -29 -44 -134 -43 -229 2 -109 0 -111 -77 -121 -81
-10 -149 -89 -106 -122 31 -24 77 -18 123 16 24 17 49 28 56 25 7 -2 16 -27
20 -55 4 -28 11 -53 16 -57 5 -3 6 15 1 43 -4 26 -7 127 -7 223 0 172 0 176
28 224 15 27 27 52 27 57 0 14 -26 11 -38 -4z m-95 -411 c-38 -26 -97 -43 -97
-28 0 22 57 49 109 51 22 1 21 -1 -12 -23z"/>
<path d="M1918 8652 c6 -17 93 -100 362 -347 95 -87 254 -235 409 -381 42 -39
114 -103 161 -144 47 -40 92 -80 100 -90 14 -16 205 -191 316 -289 27 -24 90
-82 139 -130 50 -47 147 -138 215 -201 69 -63 165 -153 215 -200 49 -47 155
-146 235 -219 80 -74 195 -180 256 -237 61 -57 135 -123 164 -146 104 -85 294
-261 390 -362 41 -43 100 -97 131 -120 56 -41 182 -153 326 -290 81 -77 81
-86 0 -90 -30 -2 -42 -8 -48 -22 -10 -27 -2 -35 29 -28 23 6 16 -5 -47 -72
-41 -43 -80 -84 -85 -89 -6 -6 -42 -44 -81 -86 -38 -41 -116 -124 -172 -185
-56 -60 -170 -176 -253 -259 -84 -82 -179 -184 -212 -225 -143 -179 -559 -607
-619 -637 -39 -18 -70 -22 -254 -28 -115 -5 -226 -9 -245 -10 -19 -1 -179 -7
-355 -14 -176 -6 -381 -15 -455 -21 -74 -5 -245 -12 -380 -15 -135 -3 -346 -8
-469 -11 -123 -3 -236 -2 -252 1 l-28 6 1 362 c1 199 -2 448 -5 552 -3 105 -9
287 -13 405 -3 118 -9 217 -12 220 -2 3 -1 -155 3 -350 15 -672 15 -959 -1
-974 -8 -8 -10 -16 -5 -18 9 -3 19 -538 26 -1288 2 -245 6 -609 9 -810 3 -201
2 -410 -3 -465 -6 -73 -5 -103 4 -113 9 -10 37 -11 136 -3 68 5 266 13 439 16
173 4 317 8 320 10 3 1 147 6 320 9 173 4 432 11 575 15 143 5 271 9 285 9 56
-1 760 22 825 27 39 3 284 10 545 15 615 13 828 19 1085 30 116 5 413 14 660
20 248 6 632 17 855 25 223 8 488 17 590 20 102 3 237 8 300 10 418 17 889 26
1027 20 181 -8 293 0 320 22 13 10 15 16 6 19 -7 3 -13 12 -13 19 0 26 -57 28
-295 9 -93 -7 -233 -16 -310 -19 -77 -4 -164 -8 -194 -10 -29 -2 -189 -7 -355
-10 -165 -3 -314 -8 -331 -10 -16 -3 -122 -7 -235 -10 -113 -3 -250 -8 -305
-10 -55 -2 -183 -7 -284 -11 l-184 -7 5 34 c9 56 -6 74 -36 44 -8 -9 -13 -26
-10 -40 6 -36 -18 -42 -181 -44 -77 -1 -192 -3 -255 -6 -63 -2 -227 -7 -365
-10 -137 -4 -270 -8 -295 -10 -99 -8 -817 -28 -1405 -40 -110 -3 -312 -9 -450
-15 -504 -21 -1012 -36 -1515 -45 -179 -4 -359 -8 -400 -10 -88 -4 -667 -19
-757 -19 -34 -1 -64 2 -67 5 -9 9 -20 454 -37 1449 -5 322 -10 610 -11 640 0
30 0 103 1 161 1 101 2 107 24 113 20 6 254 15 777 31 96 3 245 10 330 15 85
6 292 15 460 20 168 6 379 15 470 20 91 5 203 10 248 10 l84 0 -54 -62 c-29
-34 -82 -92 -118 -128 -68 -68 -196 -203 -315 -330 -70 -75 -463 -485 -585
-611 -36 -37 -157 -163 -270 -280 -113 -118 -243 -252 -290 -300 -47 -47 -148
-152 -225 -234 -77 -82 -194 -205 -260 -273 -66 -68 -122 -128 -123 -133 -2
-5 1 -16 7 -23 9 -11 19 -11 51 -2 39 11 63 26 43 26 -21 0 2 47 36 75 18 16
69 72 113 124 88 105 246 275 432 465 65 66 168 175 229 241 61 66 138 147
171 180 59 58 177 180 389 405 54 58 172 182 261 275 90 94 190 199 223 235
64 69 217 232 269 287 18 18 36 33 42 33 5 0 13 -29 17 -65 10 -94 27 -94 20
1 -3 42 -8 80 -10 84 -8 13 225 27 595 35 85 2 254 8 375 13 226 11 385 17
772 28 177 5 226 4 239 -6 11 -10 18 -11 22 -3 4 6 18 14 32 17 36 8 313 21
700 32 85 2 237 7 337 12 173 7 181 6 166 -11 -19 -20 -21 -88 -4 -130 17 -44
34 -23 27 34 -6 41 -4 50 12 58 20 10 50 -4 82 -40 8 -9 76 -72 150 -139 74
-67 180 -164 235 -214 55 -51 116 -105 135 -122 19 -16 59 -54 90 -84 30 -30
86 -82 123 -115 38 -33 128 -117 200 -187 73 -70 181 -174 240 -230 60 -57
147 -140 194 -185 46 -46 87 -83 91 -83 4 0 50 -41 102 -91 52 -50 122 -113
155 -141 33 -28 103 -92 156 -142 53 -50 152 -143 219 -206 68 -63 137 -130
154 -147 39 -42 66 -44 66 -4 0 21 -11 37 -42 64 -24 20 -73 64 -110 99 -66
62 -108 99 -179 155 -19 15 -67 58 -105 94 -62 59 -146 137 -274 253 -25 23
-83 74 -130 113 -47 39 -133 122 -193 183 -59 61 -121 119 -137 128 -31 19
-131 107 -264 233 -86 80 -321 297 -395 364 -43 38 -99 90 -240 221 -36 33
-111 101 -166 151 -105 95 -131 121 -124 128 8 7 171 14 464 20 154 3 381 13
505 21 124 8 253 13 287 12 58 -1 65 1 115 39 29 22 64 46 78 53 22 13 23 15
6 18 -14 3 -8 9 24 23 23 10 49 19 57 19 8 0 28 14 45 30 16 17 34 30 40 30 6
0 9 3 5 6 -3 4 -29 -2 -58 -12 -39 -14 -53 -16 -56 -7 -6 17 -99 -31 -178 -91
-39 -30 -70 -46 -89 -46 l-29 0 24 27 24 27 -33 -27 c-19 -15 -42 -27 -52 -27
-9 0 -33 -3 -51 -7 l-34 -6 19 22 19 21 -36 -15 c-19 -8 -61 -16 -91 -18 -31
-2 -59 -6 -62 -10 -4 -4 -12 -7 -18 -7 -6 0 -4 5 4 10 21 14 3 12 -52 -5 -46
-13 -48 -13 -48 5 0 13 9 22 25 26 23 6 36 24 18 24 -16 0 -87 -49 -73 -50 10
-1 8 -4 -5 -9 -11 -5 -29 -5 -40 -1 -11 4 -30 4 -43 -1 -12 -5 -46 -9 -75 -10
-28 -1 -104 -6 -167 -10 -63 -5 -210 -11 -326 -14 l-211 -5 -49 42 c-27 24
-67 60 -89 80 -22 21 -46 38 -52 38 -7 0 -13 5 -13 10 0 14 -81 86 -92 82 -5
-1 -7 2 -4 7 3 5 -11 24 -32 41 -20 18 -89 81 -152 141 -63 59 -137 128 -165
153 -27 24 -48 47 -45 49 3 2 55 26 115 52 61 26 148 67 194 91 47 24 92 44
102 44 9 0 30 7 45 15 28 15 30 14 58 -17 27 -30 29 -31 42 -13 9 12 14 47 14
98 0 43 5 88 11 99 21 39 -3 43 -106 18 -106 -26 -113 -35 -65 -80 17 -15 30
-31 30 -34 0 -3 -21 -16 -47 -29 -27 -13 -76 -40 -111 -60 -74 -43 -264 -127
-307 -136 -33 -8 -27 -11 -169 115 -50 44 -122 105 -161 136 -38 30 -88 74
-110 98 -77 81 -383 373 -455 433 -39 32 -43 39 -30 50 8 6 28 28 43 47 16 19
116 123 223 231 107 108 194 201 194 206 0 6 23 34 52 64 28 30 84 88 123 129
250 263 337 354 489 510 169 173 290 298 540 560 71 74 183 191 250 260 67 69
211 222 321 340 208 223 408 425 532 538 75 68 88 87 77 116 -10 26 -30 19
-57 -22 -14 -22 -110 -126 -214 -233 -104 -107 -205 -212 -224 -234 -19 -21
-65 -71 -104 -110 -38 -38 -91 -94 -117 -123 -26 -30 -105 -113 -175 -186 -70
-72 -211 -219 -313 -326 -273 -286 -381 -398 -552 -570 -84 -85 -160 -164
-168 -176 -8 -12 -110 -120 -227 -240 -116 -120 -227 -239 -245 -264 -19 -25
-123 -134 -231 -243 -108 -109 -197 -203 -197 -208 0 -4 -10 -14 -22 -20 -25
-14 -80 -20 -73 -8 3 4 -12 22 -33 40 -74 66 -157 139 -182 159 -14 12 -52 47
-85 78 -33 32 -85 78 -115 102 -30 25 -59 50 -63 58 -5 7 -13 9 -19 6 -6 -4
-8 -3 -5 3 4 6 -44 57 -106 114 -234 216 -306 282 -334 301 -13 8 -100 89
-195 180 -150 142 -229 216 -299 278 -9 8 -64 60 -121 115 -57 55 -182 170
-278 255 -96 85 -228 207 -295 270 -66 63 -188 178 -270 255 -82 77 -159 150
-172 162 -12 12 -31 27 -41 35 -19 13 -172 152 -290 263 -35 33 -75 78 -88
100 -17 29 -31 41 -49 43 -37 3 -48 12 -243 199 -96 93 -178 169 -183 171 -5
2 -6 -5 -1 -16z m3563 -3292 c24 -18 146 -127 213 -192 65 -62 78 -80 66 -87
-12 -9 -11 -17 9 -63 42 -95 94 -285 186 -678 20 -85 41 -160 45 -165 5 -6 16
-40 25 -77 19 -76 65 -145 101 -154 14 -4 28 -4 31 0 8 8 -28 47 -38 41 -14
-9 -50 54 -80 143 -26 75 -53 184 -46 187 1 0 23 19 49 43 26 23 54 42 62 42
14 0 16 -7 47 -173 11 -60 30 -130 43 -155 26 -50 61 -92 77 -92 15 0 22 27
15 55 -5 21 -10 24 -26 15 -26 -14 -28 -13 -35 19 -3 16 -12 35 -20 41 -7 6
-18 41 -24 78 -7 37 -16 92 -22 122 -19 107 -17 122 16 139 17 9 59 32 95 53
103 57 96 58 191 -28 153 -140 301 -288 290 -292 -26 -9 -1 -113 52 -219 26
-50 26 -51 6 -56 -11 -3 -36 -3 -55 0 -37 6 -39 9 -158 266 -29 62 -50 97 -58
95 -20 -7 -15 -29 15 -75 15 -24 27 -45 27 -47 0 -3 25 -56 55 -118 38 -79 51
-115 42 -119 -19 -10 -143 -19 -357 -24 -107 -3 -218 -8 -245 -11 l-50 -6 -57
114 c-59 116 -98 235 -98 298 -1 44 -30 154 -65 240 -14 36 -46 146 -70 245
-42 173 -57 223 -105 345 -12 30 -26 69 -31 87 -7 23 -14 30 -25 26 -20 -8
-17 -22 39 -158 42 -103 85 -244 124 -410 9 -38 31 -108 49 -155 18 -47 38
-119 44 -160 19 -124 48 -241 76 -300 14 -30 37 -77 50 -105 27 -58 22 -65
-47 -65 -30 0 -51 6 -59 15 -7 9 -15 13 -18 10 -13 -13 -112 185 -112 223 0 7
-4 20 -9 30 -13 27 -87 267 -111 362 -12 47 -33 123 -46 170 -66 235 -127 472
-138 535 -9 53 -16 71 -29 73 -14 3 -17 -1 -12 -20 18 -80 71 -284 106 -408
51 -184 51 -182 89 -324 17 -65 39 -144 50 -175 10 -31 33 -103 50 -161 38
-127 76 -222 108 -274 26 -42 22 -52 -25 -61 -30 -5 -33 -3 -33 21 0 17 -6 28
-20 31 -32 8 -139 240 -140 300 0 35 -146 475 -195 588 -7 17 -20 46 -28 65
-8 19 -23 53 -33 75 -22 49 -19 40 -29 103 -8 55 -20 66 -34 30 -6 -15 -4 -35
6 -58 8 -19 20 -50 25 -69 5 -19 17 -45 25 -58 8 -13 11 -23 7 -23 -5 0 -3 -4
3 -8 25 -16 233 -591 233 -643 0 -14 5 -41 11 -60 15 -47 88 -217 111 -257 10
-18 18 -34 18 -36 0 -3 -31 -6 -70 -8 -59 -2 -69 -1 -65 12 3 9 -11 40 -31 70
-80 125 -127 253 -179 495 -15 66 -36 145 -47 175 -11 30 -24 72 -29 92 -5 21
-20 61 -34 90 -13 29 -35 82 -49 118 -14 38 -31 66 -40 68 -23 5 -20 -11 15
-86 76 -164 137 -344 168 -498 33 -166 79 -303 132 -399 63 -114 68 -130 37
-139 -39 -10 -103 -7 -122 7 -9 7 -43 90 -77 191 -33 98 -66 191 -74 206 -8
16 -30 84 -49 152 -55 196 -83 288 -110 368 -14 41 -26 92 -26 112 0 20 -7 44
-16 53 -15 14 -3 29 139 173 86 86 170 175 187 197 17 22 41 43 53 46 15 3 21
12 19 24 -3 16 -2 17 12 6 14 -12 16 -11 16 5 0 15 3 14 17 -6 9 -14 20 -27
24 -30z m621 -573 c54 -33 221 -195 213 -207 -3 -5 -10 -10 -15 -10 -4 0 -39
-18 -78 -40 -38 -22 -76 -40 -84 -40 -9 0 -20 24 -33 73 -10 39 -24 86 -32
104 -7 18 -13 44 -13 58 0 16 -6 25 -15 25 -21 0 -19 -25 13 -126 50 -154 51
-145 -21 -198 l-62 -46 -12 42 c-7 24 -33 129 -59 233 -48 197 -89 349 -100
367 -4 5 4 5 16 -2 20 -11 22 -10 16 5 -3 10 47 -35 112 -99 65 -64 134 -127
154 -139z m-1084 26 c55 -164 110 -344 131 -428 11 -44 32 -109 46 -145 15
-36 46 -121 69 -190 24 -69 47 -134 52 -145 7 -18 6 -18 -9 -6 -20 16 -21 12
-7 -23 6 -17 6 -26 0 -26 -6 0 -10 9 -10 19 0 10 -7 22 -16 25 -16 6 -80 138
-88 180 -2 13 -9 33 -15 44 -6 12 -11 31 -11 43 0 32 -126 402 -165 484 -65
134 -74 265 -20 265 6 0 25 -44 43 -97z m1922 54 c0 -32 -36 -33 -42 -2 -4 17
0 25 11 28 23 5 31 -1 31 -26z m-2027 -74 c7 -44 27 -102 48 -139 25 -45 122
-315 149 -414 12 -47 29 -102 36 -123 8 -20 14 -44 14 -52 0 -9 9 -34 19 -58
43 -92 61 -151 49 -158 -11 -7 -76 -12 -319 -24 -95 -4 -107 -3 -113 13 -3 9
-10 24 -15 32 -14 22 -45 132 -65 230 -51 252 -82 360 -105 360 -22 0 -20 -23
8 -87 16 -38 43 -136 61 -223 17 -85 40 -180 50 -210 32 -97 33 -107 7 -114
-84 -22 -107 14 -187 289 -17 61 -36 118 -41 127 -5 10 -9 29 -9 42 0 34 -13
39 -50 19 -22 -13 -30 -23 -26 -38 29 -126 49 -223 57 -283 12 -88 24 -122 43
-122 23 0 31 39 10 54 -16 12 -23 39 -38 161 l-6 50 19 -50 20 -50 -5 45 c-3
36 2 25 26 -50 17 -52 33 -103 35 -114 2 -10 13 -33 24 -51 17 -29 17 -34 4
-39 -8 -3 -99 -9 -203 -12 -218 -7 -227 -4 -255 79 -9 26 -22 47 -30 47 -10 0
-10 -7 0 -37 26 -80 27 -90 2 -96 -12 -3 -68 -6 -125 -7 l-102 -1 57 57 c32
30 70 65 86 76 15 10 27 24 27 30 0 15 129 138 145 138 18 0 25 -23 25 -79 0
-58 15 -105 47 -148 26 -35 31 -37 51 -25 17 11 5 40 -19 47 -22 7 -38 58 -40
133 -1 29 -6 55 -11 58 -4 3 -8 10 -8 16 0 6 10 3 22 -8 21 -19 21 -19 15 5
-4 15 -2 20 4 14 12 -12 49 -117 49 -138 0 -20 40 -115 49 -115 3 0 12 4 19 8
9 7 8 13 -7 26 -11 10 -25 43 -32 75 -19 91 -39 155 -54 176 -15 18 -16 18
-44 2 -35 -20 -41 -21 -41 -4 0 8 12 25 28 39 15 14 38 38 51 54 165 198 477
524 503 524 42 0 99 -173 153 -460 14 -74 37 -175 51 -225 14 -49 30 -107 36
-128 12 -43 42 -67 52 -41 3 9 -3 28 -13 43 -11 15 -29 60 -40 99 -11 40 -23
77 -27 83 -4 7 -9 28 -11 48 -2 20 -10 61 -17 91 -8 30 -22 106 -32 168 -9 61
-20 112 -23 112 -4 0 -7 9 -8 20 -1 10 -17 59 -37 107 -51 129 -53 141 -25
152 29 11 26 13 32 -26z m1939 -685 c23 -18 77 -68 122 -110 l81 -78 -41 0
c-23 0 -68 -3 -100 -6 l-59 -6 -27 63 c-31 71 -58 147 -58 160 0 20 44 7 82
-23z m-4912 -2362 c0 -2 -7 -7 -16 -10 -8 -3 -12 -2 -9 4 6 10 25 14 25 6z"/>
<path d="M5605 5220 c3 -5 8 -10 11 -10 2 0 4 5 4 10 0 6 -5 10 -11 10 -5 0
-7 -4 -4 -10z"/>
<path d="M6316 4421 c-3 -5 3 -38 13 -73 10 -34 22 -76 25 -93 16 -70 69 -224
94 -270 18 -34 34 -51 49 -53 19 -3 23 1 21 23 -2 16 -10 28 -23 31 -11 3 -28
19 -39 37 -21 36 -57 149 -51 156 3 2 1 9 -4 15 -5 6 -14 38 -20 71 -7 33 -16
71 -21 85 -4 14 -11 37 -14 53 -6 27 -20 35 -30 18z"/>
<path d="M4901 4735 c0 -5 9 -28 20 -50 10 -22 16 -29 13 -15 -7 28 -33 80
-33 65z"/>
<path d="M4676 4571 c-9 -15 82 -309 139 -446 18 -44 38 -107 45 -140 19 -91
25 -110 40 -110 8 0 18 15 22 33 8 28 5 39 -15 65 -13 18 -27 48 -31 67 -3 19
-17 58 -29 85 -48 103 -91 235 -107 325 -15 90 -29 130 -45 130 -8 0 -16 -4
-19 -9z"/>
<path d="M4562 3910 c0 -14 2 -19 5 -12 2 6 2 18 0 25 -3 6 -5 1 -5 -13z"/>
<path d="M4350 3888 c0 -9 5 -20 11 -23 17 -11 20 0 4 21 -13 17 -14 17 -15 2z"/>
<path d="M1345 8090 c-9 -15 -2 -290 8 -290 4 0 7 68 7 150 0 83 -2 150 -4
150 -3 0 -8 -5 -11 -10z"/>
<path d="M1353 7725 c0 -33 2 -45 4 -27 2 18 2 45 0 60 -2 15 -4 0 -4 -33z"/>
<path d="M1352 7580 c0 -14 2 -19 5 -12 2 6 2 18 0 25 -3 6 -5 1 -5 -13z"/>
<path d="M1351 7464 c0 -11 3 -14 6 -6 3 7 2 16 -1 19 -3 4 -6 -2 -5 -13z"/>
<path d="M1353 7390 c0 -25 2 -35 4 -22 2 12 2 32 0 45 -2 12 -4 2 -4 -23z"/>
<path d="M1363 7040 c0 -25 2 -35 4 -22 2 12 2 32 0 45 -2 12 -4 2 -4 -23z"/>
<path d="M1372 6655 c0 -16 2 -22 5 -12 2 9 2 23 0 30 -3 6 -5 -1 -5 -18z"/>
<path d="M1373 6555 c0 -38 2 -53 4 -32 2 20 2 52 0 70 -2 17 -4 1 -4 -38z"/>
<path d="M1372 6380 c0 -14 2 -19 5 -12 2 6 2 18 0 25 -3 6 -5 1 -5 -13z"/>
<path d="M1381 6185 c-1 -5 -3 -32 -5 -59 -3 -36 -1 -45 6 -33 5 10 7 36 5 60
-2 23 -4 38 -6 32z"/>
<path d="M1382 6020 c0 -19 2 -27 5 -17 2 9 2 25 0 35 -3 9 -5 1 -5 -18z"/>
<path d="M1380 5820 c0 -90 3 -160 7 -157 8 9 7 307 -1 315 -3 3 -6 -68 -6
-158z"/>
<path d="M9864 5805 c-7 -17 14 -75 27 -75 11 0 23 66 14 79 -9 16 -35 13 -41
-4z"/>
<path d="M8155 5705 c-8 -14 -21 -35 -29 -48 -8 -13 -32 -66 -54 -118 -50
-119 -54 -131 -58 -146 -1 -7 -13 -43 -27 -80 -35 -95 -39 -119 -23 -132 10
-8 17 -7 28 7 16 19 22 62 8 62 -16 0 11 48 30 53 9 2 50 -11 89 -30 39 -19
78 -32 86 -29 10 4 15 21 15 54 0 53 9 66 54 78 26 6 27 5 17 -14 -20 -37 -21
-100 -2 -124 25 -30 60 -18 120 42 28 28 54 50 58 51 4 0 16 2 26 4 14 3 18
-2 16 -18 -3 -26 9 -67 20 -67 11 0 39 33 42 50 2 8 0 32 -5 53 -5 25 -3 43 5
53 12 15 74 20 65 5 -9 -13 12 -62 36 -88 22 -23 67 -30 116 -17 47 13 19 44
-39 44 l-29 0 34 33 c46 43 53 70 25 96 -30 28 -40 27 -74 -9 -34 -35 -48 -37
-75 -10 -11 11 -30 20 -43 20 -26 0 -63 -35 -69 -64 -5 -27 -48 -32 -48 -5 0
25 -48 68 -76 69 -11 0 -31 -11 -43 -24 -20 -22 -86 -44 -97 -33 -7 6 60 154
82 184 11 14 34 28 54 32 43 8 53 37 16 47 -54 13 -75 -2 -113 -84 -20 -42
-46 -101 -58 -131 -22 -54 -23 -54 -86 -71 -35 -9 -74 -22 -86 -28 -12 -7 -24
-12 -27 -12 -5 0 36 101 89 216 18 40 47 84 64 100 37 33 40 54 6 54 -15 0
-30 -9 -40 -25z m250 -329 c0 -32 -6 -47 -28 -68 -15 -16 -37 -28 -48 -28 -18
0 -20 4 -14 28 11 47 54 111 73 109 13 -1 17 -10 17 -41z m-215 -55 c0 -28 -2
-29 -36 -25 -61 8 -70 18 -32 37 51 25 68 22 68 -12z"/>
<path d="M7491 5653 c-7 -15 -23 -59 -36 -98 -13 -38 -45 -115 -72 -170 -69
-139 -90 -202 -75 -217 13 -13 28 0 82 71 32 42 52 31 80 -44 15 -38 32 -70
39 -69 6 1 15 2 20 3 10 1 111 125 126 156 23 44 59 27 89 -42 25 -57 112 -55
167 3 29 30 18 42 -24 25 -44 -19 -103 -25 -111 -12 -4 6 12 19 38 32 78 36
132 117 90 133 -24 9 -73 7 -95 -4 -11 -6 -30 -28 -43 -49 -18 -27 -33 -40
-54 -43 l-29 -4 36 60 c21 34 43 77 51 96 8 19 27 47 43 62 20 20 27 33 22 48
-7 23 -27 26 -43 8 -6 -7 -32 -56 -59 -108 -81 -160 -194 -308 -227 -297 -6 2
-14 18 -17 37 -10 46 -41 84 -72 88 -15 2 -27 5 -27 6 0 2 32 69 71 150 46 95
69 155 67 173 -4 36 -22 39 -37 6z m359 -287 c0 -2 -7 -7 -16 -10 -8 -3 -12
-2 -9 4 6 10 25 14 25 6z"/>
<path d="M1383 5555 c0 -33 2 -45 4 -27 2 18 2 45 0 60 -2 15 -4 0 -4 -33z"/>
<path d="M968 5567 c-8 -6 -18 -20 -22 -31 -5 -15 -3 -17 16 -11 66 20 125 6
134 -33 3 -15 7 -32 9 -38 7 -25 -24 -73 -52 -79 -15 -3 -50 -12 -77 -20 -54
-16 -66 -13 -66 14 0 10 -7 24 -16 32 -21 17 -34 -3 -34 -52 0 -29 -7 -41 -40
-67 -43 -35 -45 -62 -4 -62 19 0 22 -4 19 -27 -8 -67 -49 -180 -107 -303 -32
-66 -43 -80 -66 -80 -10 0 -10 5 -1 23 11 20 11 21 -4 9 -9 -7 -19 -28 -22
-45 -3 -18 -11 -42 -17 -54 -11 -22 -5 -53 10 -53 5 0 26 27 46 59 77 125 134
259 181 426 l31 110 64 17 c36 9 81 19 101 22 29 5 40 14 53 40 22 46 21 135
-2 161 -32 38 -109 62 -134 42z"/>
<path d="M1386 5482 c-7 -12 -10 -192 -2 -199 3 -3 7 27 8 68 1 41 2 89 3 107
2 33 0 38 -9 24z"/>
<path d="M9961 5421 c-16 -28 -39 -55 -51 -61 -13 -7 -20 -21 -20 -40 0 -45
25 -37 62 19 43 65 64 71 78 23 5 -21 10 -47 10 -59 0 -17 6 -23 21 -23 20 0
21 4 14 48 -4 26 -10 52 -13 57 -4 6 -7 16 -8 23 -4 23 -34 62 -48 62 -8 0
-28 -22 -45 -49z"/>
<path d="M9518 5410 c-9 -13 -24 -20 -45 -20 -28 0 -35 -5 -47 -33 -18 -45
-61 -77 -102 -77 -19 0 -34 3 -34 6 0 16 55 74 80 84 19 8 30 20 30 32 0 16
-6 19 -32 16 -25 -2 -41 -14 -70 -53 -42 -56 -48 -93 -18 -120 15 -14 29 -16
64 -12 l45 6 -5 -107 c-7 -142 -18 -202 -50 -273 -22 -48 -37 -66 -83 -96 -56
-38 -57 -38 -156 -37 -90 0 -105 3 -147 28 -103 60 -114 145 -33 244 52 63 52
82 0 32 -87 -84 -99 -190 -30 -260 61 -62 123 -85 228 -83 84 2 92 4 149 40
57 36 62 42 88 113 20 54 32 115 44 221 8 80 22 161 30 180 9 19 15 28 16 22
0 -7 6 -13 14 -13 7 0 19 -7 26 -15 7 -8 20 -15 29 -15 20 0 91 70 91 89 0 10
9 11 33 6 17 -4 55 -8 82 -9 28 -1 58 -6 67 -10 22 -10 47 32 27 45 -11 7 -8
14 14 34 27 26 28 45 3 45 -7 0 -27 -16 -45 -36 -29 -31 -37 -35 -74 -32 -35
3 -42 7 -47 28 -5 20 -13 26 -40 28 -19 2 -39 8 -44 13 -17 15 -45 10 -58 -11z
m72 -69 c-52 -62 -90 -80 -90 -43 0 29 38 77 67 83 64 15 66 11 23 -40z"/>
<path d="M4996 5384 c-11 -28 -6 -34 27 -34 39 0 77 10 77 20 0 7 -67 30 -88
30 -5 0 -13 -7 -16 -16z"/>
<path d="M4223 5357 c-49 -12 -57 -27 -15 -28 15 0 70 -3 122 -5 58 -3 91 -1
85 5 -10 9 -130 42 -143 40 -4 -1 -26 -7 -49 -12z"/>
<path d="M4720 5350 c0 -23 22 -27 39 -6 9 11 8 15 -5 20 -26 10 -34 7 -34
-14z"/>
<path d="M3817 5342 c-21 -4 -22 -16 -3 -31 10 -9 42 -9 130 0 170 17 178 34
18 34 -71 0 -136 -1 -145 -3z"/>
<path d="M3428 5323 c-10 -2 -18 -11 -18 -19 0 -11 18 -14 83 -14 105 0 128
13 51 28 -58 12 -85 13 -116 5z"/>
<path d="M2793 5312 c-7 -4 -9 -13 -4 -20 5 -9 27 -12 67 -10 53 3 56 4 34 14
-38 17 -84 25 -97 16z"/>
<path d="M3116 5311 c-13 -20 5 -31 52 -31 63 0 86 15 35 24 -21 3 -48 9 -59
12 -12 3 -25 1 -28 -5z"/>
<path d="M2420 5288 c-14 -5 -77 -10 -140 -10 -63 1 -131 -3 -150 -8 l-35 -8
35 -1 c20 -1 41 -6 46 -11 8 -8 25 -8 57 -1 25 6 113 12 195 14 149 4 203 14
152 28 -38 11 -132 9 -160 -3z"/>
<path d="M1945 5269 c-12 -18 7 -29 48 -28 57 2 107 14 87 22 -29 11 -130 15
-135 6z"/>
<path d="M1667 5264 c-18 -18 -2 -24 61 -24 42 0 61 4 52 9 -22 12 -105 23
-113 15z"/>
<path d="M1450 5244 c0 -13 6 -15 28 -9 45 11 50 25 9 25 -27 0 -37 -4 -37
-16z"/>
<path d="M1132 5169 c-37 -14 -101 -129 -152 -276 -19 -54 -28 -66 -63 -85
-40 -22 -52 -40 -110 -153 -51 -99 -63 -143 -41 -152 18 -7 47 18 86 74 35 52
63 69 84 52 12 -10 13 -7 8 20 -6 26 -3 32 20 41 29 11 34 31 11 50 -21 18
-19 38 14 127 43 114 88 202 133 256 22 27 39 50 37 51 -2 2 -14 0 -27 -5z
m-204 -426 c-30 -64 -48 -92 -70 -114 -16 -14 -28 -30 -28 -35 0 -5 -9 -15
-20 -22 -26 -16 -26 -14 10 60 17 34 30 67 30 74 0 15 40 43 63 43 10 1 17 -2
15 -6z"/>
<path d="M899 3918 c-7 -13 -11 -23 -10 -23 8 0 -13 -57 -24 -63 -32 -19 -112
-143 -130 -202 -7 -22 -6 -23 9 -11 9 8 24 29 32 47 22 45 34 43 34 -6 0 -27
-7 -47 -20 -60 -21 -21 -50 -27 -50 -10 0 6 -4 10 -10 10 -5 0 -10 -5 -10 -10
0 -6 -12 -21 -26 -34 -23 -19 -25 -25 -14 -43 11 -17 9 -39 -18 -144 -35 -140
-44 -220 -25 -226 7 -3 18 8 23 24 21 57 124 298 132 309 5 6 27 14 49 18 90
14 162 69 219 166 53 88 64 159 30 195 -29 31 -82 48 -121 40 -23 -5 -29 -4
-24 4 7 12 -11 41 -26 41 -5 0 -14 -10 -20 -22z m175 -74 c23 -22 20 -51 -13
-119 -38 -80 -100 -148 -163 -179 -44 -22 -98 -34 -98 -23 0 16 64 226 76 248
24 47 90 89 140 89 25 0 49 -6 58 -16z m-294 -304 c0 -5 -4 -10 -9 -10 -5 0
-18 -3 -28 -6 -16 -5 -16 -4 1 10 23 18 36 20 36 6z m-35 -112 c-18 -41 -55
-92 -62 -84 -10 9 23 113 40 129 32 29 44 5 22 -45z"/>
<path d="M7104 3555 c-18 -44 -18 -86 0 -111 18 -24 22 -14 30 79 7 75 -6 89
-30 32z"/>
<path d="M3857 3483 c-7 -12 27 -116 36 -107 4 4 7 31 7 61 0 46 -3 53 -19 53
-11 0 -22 -3 -24 -7z"/>
<path d="M930 3433 c0 -20 29 -121 41 -145 5 -10 9 -26 9 -36 0 -31 19 -41 48
-26 23 12 29 11 47 -6 22 -20 52 -26 70 -12 29 20 115 175 115 207 0 31 -25 9
-57 -51 -30 -56 -82 -114 -103 -114 -13 0 -26 28 -34 73 -8 42 -22 46 -54 17
l-22 -21 -10 26 c-6 15 -10 44 -10 66 0 32 -3 39 -20 39 -12 0 -20 -7 -20 -17z"/>
<path d="M7107 3286 c-12 -18 -14 -32 -7 -56 6 -21 6 -59 -1 -106 -10 -64 -9
-79 7 -119 21 -50 28 -54 44 -26 11 22 3 51 -19 68 -14 10 -14 18 2 76 12 48
14 73 7 91 -5 14 -7 39 -4 55 8 37 -10 47 -29 17z"/>
<path d="M3867 3233 c-9 -8 -9 -60 -1 -90 12 -43 24 -23 24 37 0 55 -6 70 -23
53z"/>
<path d="M3887 3070 c-13 -31 -14 -130 -2 -140 19 -15 25 -1 24 54 -1 62 -13
108 -22 86z"/>
<path d="M3875 2839 c-12 -22 -16 -59 -16 -133 0 -112 7 -159 24 -153 11 3 11
93 1 153 -3 18 1 59 10 94 19 73 19 70 6 70 -5 0 -17 -14 -25 -31z"/>
<path d="M7135 2839 c-5 -6 -9 -64 -11 -128 -2 -64 -4 -134 -5 -156 -2 -22 1
-60 5 -85 4 -28 1 -72 -7 -115 -11 -58 -11 -73 -1 -83 8 -7 11 -24 7 -46 -6
-38 3 -86 16 -86 4 0 7 125 6 278 -1 152 3 308 8 346 6 44 5 72 -1 78 -6 6
-12 5 -17 -3z"/>
<path d="M9608 2653 c-37 -23 -58 -80 -58 -157 0 -75 46 -349 63 -376 9 -15 9
-22 -1 -32 -17 -17 -15 -42 7 -69 10 -13 24 -41 30 -61 14 -43 41 -51 41 -13
0 24 9 29 37 26 32 -4 94 22 129 55 34 33 39 35 45 18 5 -16 25 -109 33 -161
4 -22 45 -63 64 -63 19 0 65 44 55 53 -2 3 2 18 11 35 11 22 13 38 6 64 -6 19
-9 52 -8 74 0 21 -4 93 -10 159 -16 161 -15 254 3 285 20 35 18 50 -5 50 -38
0 -43 -33 -36 -217 6 -184 7 -180 -41 -167 -20 6 -22 12 -22 98 0 50 -5 107
-10 125 -8 26 -8 37 2 43 9 6 8 8 -4 8 -8 0 -23 17 -33 38 -36 76 -95 140
-159 172 -68 34 -100 37 -139 13z m127 -52 c76 -35 161 -149 167 -223 1 -16 5
-28 9 -28 12 0 16 -72 7 -128 -11 -67 -29 -104 -78 -153 -41 -41 -69 -52 -121
-47 -32 3 -34 6 -40 48 -4 25 -9 61 -12 80 -3 19 -9 58 -13 85 -3 28 -9 54
-12 59 -3 5 -6 53 -7 107 -1 54 -4 102 -8 105 -3 4 -17 4 -31 0 -17 -4 -26
-14 -29 -34 -3 -22 -4 -20 -6 10 -1 41 31 112 58 128 25 15 72 11 116 -9z
m296 -523 c6 -12 12 -55 13 -96 1 -62 -2 -76 -18 -88 -29 -21 -53 -17 -60 9
-14 52 -18 154 -7 175 15 29 57 29 72 0z"/>
<path d="M3872 2428 c-5 -40 -2 -161 4 -180 3 -10 10 -18 15 -18 13 0 6 213
-7 217 -5 2 -11 -7 -12 -19z"/>
<path d="M3875 2141 c-14 -31 -16 -53 -11 -98 18 -154 20 -185 20 -280 1 -100
8 -126 25 -81 9 24 6 166 -5 273 -10 95 -10 143 0 188 11 49 -6 48 -29 -2z"/>
<path d="M8468 2103 c7 -3 16 -2 19 1 4 3 -2 6 -13 5 -11 0 -14 -3 -6 -6z"/>
<path d="M7117 2003 c-11 -10 -8 -51 3 -58 6 -3 10 -15 10 -26 0 -10 6 -19 14
-19 17 0 27 33 15 51 -5 8 -9 24 -9 37 0 21 -19 30 -33 15z"/>
<path d="M7143 1833 c-12 -30 -8 -156 5 -201 10 -32 18 -42 30 -40 10 2 16 11
14 23 -2 11 -3 36 -3 54 0 19 -7 43 -15 52 -13 15 -14 24 -4 53 8 26 8 41 0
56 -13 25 -19 25 -27 3z"/>
<path d="M3889 1533 c-3 -61 4 -140 13 -150 30 -37 40 1 23 84 -8 37 -15 71
-15 76 0 15 -20 6 -21 -10z"/>
<path d="M9938 1441 c-26 -17 -55 -42 -65 -58 -9 -15 -20 -30 -23 -33 -3 -3
-15 -25 -27 -50 -74 -153 -94 -258 -73 -395 14 -91 35 -138 78 -177 67 -59
126 -73 234 -54 l47 9 6 -34 c4 -22 26 -54 61 -92 30 -31 54 -60 54 -63 0 -32
173 -174 212 -174 31 0 6 33 -55 73 -30 20 -68 53 -86 74 -107 126 -161 209
-161 249 0 11 9 29 20 39 49 44 90 153 90 240 0 46 -39 131 -84 182 -66 74
-141 93 -190 48 -25 -23 -27 -29 -24 -102 2 -47 7 -78 15 -80 8 -3 10 13 6 55
-5 55 -4 60 22 80 45 35 88 29 142 -20 77 -71 106 -163 79 -246 -17 -49 -82
-132 -104 -132 -8 0 -12 20 -12 55 0 42 -4 57 -16 62 -9 3 -20 0 -25 -8 -10
-14 -5 -102 7 -132 8 -21 -44 -47 -91 -47 -46 0 -127 41 -153 77 -57 81 -54
300 7 433 49 109 66 132 140 181 52 34 93 37 121 9 25 -25 63 -27 58 -3 -4 23
-84 62 -129 62 -22 1 -52 -9 -81 -28z"/>
<path d="M7220 1258 c-69 -18 -130 -113 -169 -263 -35 -132 -25 -205 36 -262
29 -27 39 -30 76 -26 23 2 59 12 80 20 36 16 38 15 57 -5 21 -22 80 -38 105
-28 27 10 17 35 -18 41 -18 4 -42 14 -55 23 -20 16 -21 20 -10 50 7 17 16 32
20 32 4 0 8 5 8 12 0 6 9 30 19 52 27 58 49 154 45 204 -3 41 -36 96 -78 131
-24 20 -78 28 -116 19z m101 -49 c38 -20 59 -49 69 -94 8 -38 7 -56 -11 -107
-23 -70 -45 -116 -65 -135 -10 -11 -13 -9 -16 9 -2 15 -10 23 -23 23 -17 0
-20 -8 -23 -60 -3 -64 -7 -70 -66 -86 -51 -14 -77 -6 -99 30 -31 53 -14 208
34 303 25 48 34 53 59 28 27 -27 55 -28 40 -1 -19 37 -12 60 28 80 46 23 48
24 73 10z"/>
<path d="M3673 1067 c-57 -30 -79 -52 -112 -111 -54 -95 -73 -180 -75 -341 -1
-141 22 -204 77 -205 29 0 90 35 123 73 30 32 35 34 81 30 38 -4 53 -1 66 12
25 24 11 38 -30 30 -44 -8 -65 8 -53 38 5 12 25 60 45 107 97 226 100 297 12
364 -41 31 -78 32 -134 3z m128 -27 c24 -13 49 -61 49 -95 0 -25 -56 -177 -91
-247 -29 -57 -43 -59 -35 -4 6 37 4 46 -7 46 -34 0 -54 -76 -37 -140 10 -36 8
-44 -10 -70 -25 -34 -79 -70 -108 -70 -45 0 -57 84 -37 247 12 95 21 130 47
182 18 36 44 72 58 80 21 14 23 14 15 1 -5 -8 -8 -28 -6 -45 3 -38 21 -58 21
-24 0 51 21 100 46 110 14 5 32 16 40 24 18 18 29 19 55 5z"/>
<path d="M859 1045 c-78 -40 -134 -124 -127 -189 4 -33 4 -34 30 37 15 38 85
106 133 128 46 21 118 24 156 6 49 -23 109 -72 109 -90 0 -9 -4 -25 -9 -35 -6
-9 -17 -38 -26 -63 -22 -62 -84 -129 -120 -129 -36 0 -87 52 -104 107 -12 37
-12 45 2 67 11 16 28 26 49 28 22 2 34 9 36 21 3 14 -4 17 -46 17 -92 0 -115
-70 -56 -170 64 -110 129 -138 194 -84 63 53 115 204 91 261 -13 31 -86 84
-140 102 -55 18 -121 13 -172 -14z"/>
<path d="M7581 1026 c-11 -13 -10 -82 1 -102 3 -5 11 -38 17 -74 7 -36 14 -73
16 -83 2 -9 -1 -15 -6 -11 -5 3 -9 1 -9 -4 0 -5 -20 -7 -44 -5 -47 6 -86 -9
-86 -32 0 -8 -4 -15 -9 -15 -15 0 -5 -114 12 -147 20 -38 26 -40 59 -13 25 19
41 50 52 103 4 15 13 27 20 27 15 0 39 -57 30 -71 -3 -5 4 -9 15 -9 24 0 25
-12 -14 228 -14 89 -24 175 -22 192 6 32 -11 41 -32 16z m-5 -331 c7 -17 -33
-92 -54 -100 -20 -7 -30 4 -38 42 -5 24 -1 35 17 52 26 24 67 28 75 6z"/>
<path d="M4019 655 c-39 -27 -62 -52 -82 -92 -22 -42 -3 -54 72 -47 67 7 83
-5 61 -45 -11 -21 -50 -30 -50 -11 0 16 -20 12 -27 -6 -8 -21 35 -64 63 -64
17 0 30 12 49 43 45 78 28 117 -57 132 -21 4 -38 11 -38 16 0 5 3 9 8 10 4 0
17 2 29 3 28 3 30 5 38 38 5 20 2 29 -13 37 -15 8 -26 5 -53 -14z"/>
</g>
</svg>
