<?xml version="1.0" standalone="no"?>
<!DOCTYPE svg PUBLIC "-//W3C//DTD SVG 20010904//EN"
 "http://www.w3.org/TR/2001/REC-SVG-20010904/DTD/svg10.dtd">
<svg version="1.0" xmlns="http://www.w3.org/2000/svg"
 width="1072.000000pt" height="1042.000000pt" viewBox="0 0 1072.000000 1042.000000"
 preserveAspectRatio="xMidYMid meet">
<metadata>
Created by potrace 1.16, written by Peter Selinger 2001-2019
</metadata>
<g transform="translate(0.000000,1042.000000) scale(0.100000,-0.100000)"
fill="#000000" stroke="none">
<path d="M9720 9938 c-33 -9 -160 -95 -160 -108 0 -12 77 -79 140 -121 121
-81 145 -128 94 -188 -32 -38 -73 -41 -154 -11 -55 20 -55 20 -32 0 27 -23 83
-40 129 -40 41 0 90 42 102 87 8 28 6 37 -17 66 -32 40 -81 82 -142 124 -25
17 -55 42 -68 56 l-23 24 42 37 c53 45 109 63 125 41 10 -14 12 -14 18 0 6 16
-2 46 -13 44 -3 0 -22 -5 -41 -11z"/>
<path d="M803 9904 c-6 -15 2 -176 14 -301 5 -60 5 -63 -16 -63 -12 0 -32 5
-44 11 -22 12 -22 12 -3 -9 10 -11 28 -22 39 -24 16 -2 25 -15 35 -50 7 -27
17 -48 21 -48 14 0 19 50 10 84 -6 19 -5 32 0 34 28 9 95 68 126 109 39 55 46
106 18 151 -25 41 -75 92 -105 108 -37 19 -87 18 -95 -2z m96 -24 c21 -10 53
-38 70 -62 54 -73 37 -135 -57 -218 -54 -48 -54 -48 -76 68 -12 65 -13 93 -5
133 8 37 8 53 -1 64 -14 16 -5 35 16 35 8 0 32 -9 53 -20z"/>
<path d="M2440 9847 c0 -8 12 -24 26 -38 24 -22 76 -86 132 -162 12 -18 22
-27 22 -21 0 6 -10 25 -22 42 -13 17 -38 51 -55 76 -18 24 -33 53 -33 64 0 11
-11 27 -25 36 -30 19 -45 20 -45 3z"/>
<path d="M1295 9640 c-4 -6 -4 -108 0 -228 4 -119 7 -371 8 -560 2 -291 5
-344 17 -352 11 -7 11 -10 2 -10 -11 0 -12 -218 -7 -1177 3 -648 7 -1884 10
-2747 3 -863 8 -1572 10 -1576 3 -4 5 -444 6 -976 1 -625 5 -973 11 -981 7 -8
24 -11 47 -8 34 5 301 13 481 15 60 0 81 3 70 10 -9 6 -113 10 -265 9 -137 -1
-259 -1 -270 0 -45 3 -48 11 -50 172 -7 402 -7 1197 -1 1207 3 6 1 14 -5 17
-7 5 -10 69 -9 204 1 108 -1 561 -4 1006 -5 896 -6 1399 -3 1849 l2 299 485
-2 c267 -1 537 -4 600 -6 63 -3 439 -8 835 -11 396 -3 794 -8 885 -10 341 -9
696 -10 718 -2 15 5 21 4 17 -2 -4 -6 6 -10 22 -10 20 0 24 3 14 9 -11 7 -7
10 15 14 16 3 -54 3 -156 2 -102 -2 -189 -4 -195 -5 -5 -1 -39 0 -75 3 -36 3
-285 9 -555 12 -269 3 -652 8 -850 10 -198 2 -576 7 -840 10 -671 7 -909 15
-916 27 -4 6 -4 47 -1 91 4 59 2 78 -6 73 -16 -9 -15 7 0 22 9 9 9 12 -1 12
-10 0 -11 12 -6 48 3 26 6 65 5 87 -1 36 0 137 3 355 1 41 -3 689 -7 1440 -4
751 -7 1434 -6 1518 1 129 -1 152 -14 152 -8 0 -18 -5 -21 -10z m22 -262 c-3
-7 -5 -2 -5 12 0 14 2 19 5 13 2 -7 2 -19 0 -25z m10 -1360 c-3 -8 -6 -5 -6 6
-1 11 2 17 5 13 3 -3 4 -12 1 -19z"/>
<path d="M9368 9618 c-8 -7 -47 -50 -87 -95 -39 -45 -115 -128 -169 -185 -54
-57 -141 -150 -193 -208 -52 -58 -155 -168 -229 -245 -74 -77 -217 -228 -317
-335 -100 -107 -206 -217 -235 -245 -29 -27 -119 -122 -200 -210 -80 -88 -214
-230 -298 -315 -247 -253 -365 -377 -458 -482 -18 -20 -21 -28 -10 -34 7 -4
10 -4 7 -1 -3 4 35 49 84 99 49 51 103 109 119 128 41 46 168 180 168 177 0
-11 188 184 445 462 33 36 107 114 165 173 58 59 155 160 216 225 61 65 202
215 315 333 112 118 247 262 300 320 53 58 169 178 258 268 142 142 173 182
142 182 -4 0 -14 -6 -23 -12z"/>
<path d="M2658 9574 c6 -11 20 -28 33 -39 l23 -20 -23 32 c-26 38 -49 56 -33
27z"/>
<path d="M10082 9458 c-11 -29 -23 -63 -27 -76 -8 -27 -26 -24 -41 7 -22 43
-32 46 -60 20 l-27 -24 7 48 c6 38 4 47 -7 47 -24 0 -34 -97 -13 -118 14 -15
18 -14 46 13 27 26 30 27 36 9 10 -27 35 -54 51 -54 14 0 27 26 48 100 7 25
16 53 20 63 4 10 3 17 -3 17 -6 0 -19 -24 -30 -52z"/>
<path d="M2740 9474 c8 -10 39 -49 70 -85 30 -37 78 -95 105 -129 93 -115 100
-124 123 -149 43 -47 9 3 -67 99 -125 158 -223 275 -235 279 -6 2 -4 -4 4 -15z"/>
<path d="M3070 9073 c0 -6 5 -15 10 -18 6 -4 21 -21 33 -40 32 -48 127 -158
127 -147 0 5 -26 41 -57 79 -32 38 -70 84 -85 103 -15 19 -27 30 -28 23z"/>
<path d="M3261 8834 c9 -10 47 -57 85 -104 37 -47 75 -92 83 -100 16 -17 144
-174 206 -254 21 -28 89 -112 151 -186 61 -74 135 -165 165 -201 30 -37 135
-166 234 -288 99 -121 204 -251 234 -288 29 -38 77 -95 105 -128 29 -33 108
-129 177 -214 68 -85 162 -202 209 -259 47 -57 114 -141 150 -187 56 -72 145
-180 513 -627 83 -101 157 -196 157 -203 0 -3 -169 -5 -375 -5 -230 1 -382 -3
-393 -9 -11 -7 113 -9 375 -7 276 2 390 -1 386 -8 -4 -6 -90 -101 -192 -210
-102 -109 -185 -205 -185 -212 1 -8 -1 -12 -5 -10 -4 3 -26 -13 -51 -35 -28
-25 -38 -39 -27 -39 9 0 22 9 29 20 7 11 17 20 23 20 9 0 109 106 113 120 1 3
58 63 127 135 69 71 125 135 125 142 0 7 6 10 14 7 8 -3 18 7 26 25 18 43 42
39 87 -15 21 -25 88 -106 148 -178 61 -73 164 -201 230 -285 66 -84 157 -194
203 -245 46 -50 131 -151 190 -225 59 -73 168 -207 242 -296 74 -90 167 -202
205 -251 39 -49 90 -112 115 -140 25 -28 83 -100 130 -159 47 -58 141 -175
209 -258 68 -84 144 -179 170 -211 25 -33 65 -80 88 -106 24 -26 64 -74 90
-108 47 -59 196 -242 298 -365 28 -33 70 -86 95 -117 25 -31 81 -101 125 -154
89 -109 146 -178 317 -388 64 -79 131 -159 148 -178 17 -19 65 -80 107 -135
42 -55 90 -111 107 -125 23 -18 26 -19 14 -4 -10 11 -18 25 -18 31 0 5 -21 32
-46 59 -25 27 -64 74 -87 104 -23 30 -87 108 -142 174 -98 116 -115 138 -202
248 -23 29 -67 82 -97 118 -31 36 -74 89 -97 119 -23 29 -49 61 -58 70 -9 9
-30 35 -46 56 -17 22 -57 72 -90 112 -72 87 -151 183 -185 227 -14 18 -48 59
-77 92 -29 32 -62 73 -75 91 -13 17 -95 121 -183 229 -88 109 -180 223 -205
253 -24 31 -53 65 -63 76 -11 11 -47 55 -81 98 -33 43 -77 98 -96 122 -87 108
-158 195 -205 250 -27 33 -68 82 -90 109 -22 27 -56 68 -75 91 -19 22 -64 79
-100 124 -115 148 -193 241 -358 423 -34 39 -77 91 -94 117 -35 50 -79 105
-203 253 -134 160 -241 292 -259 321 -18 26 -18 27 3 27 11 0 21 -4 21 -9 0
-5 191 -9 458 -8 442 1 1360 -8 1842 -18 129 -3 501 -7 825 -10 325 -3 712 -8
861 -11 181 -4 273 -3 278 4 3 6 3 18 0 27 -5 12 -9 13 -14 4 -6 -9 -79 -12
-302 -12 -322 -1 -1335 10 -1738 18 -443 9 -1146 17 -1710 19 -300 2 -553 6
-562 10 -9 4 -41 40 -71 79 -30 40 -101 128 -158 196 -57 69 -126 152 -154
186 -192 235 -314 386 -387 476 -154 194 -475 583 -587 714 -33 39 -88 106
-123 150 -59 76 -185 232 -303 375 -30 36 -114 138 -187 226 -73 89 -167 204
-208 255 -158 195 -320 388 -332 395 -7 4 -6 -1 3 -12z"/>
<path d="M7054 7168 c-49 -51 -118 -124 -153 -163 -88 -96 -351 -374 -379
-402 -14 -13 -21 -27 -16 -34 4 -7 3 -9 -3 -6 -12 7 -210 -190 -200 -199 9 -9
47 25 47 43 0 7 6 13 13 13 7 0 33 20 57 45 24 25 40 45 35 45 -5 0 1 8 14 18
26 19 47 39 73 68 9 10 23 24 30 30 31 26 95 103 90 109 -3 3 4 8 16 12 12 3
22 9 22 13 0 5 16 23 36 42 20 18 54 55 75 81 22 27 39 46 39 43 0 -3 21 18
48 46 26 28 45 51 43 52 -2 0 47 51 108 111 61 61 111 113 111 118 0 19 -23 0
-106 -85z"/>
<path d="M6275 6351 c-3 -6 -3 -16 1 -23 4 -6 3 -8 -3 -5 -9 6 -474 -473 -497
-511 -19 -32 32 9 93 75 36 37 147 154 248 258 100 105 182 193 182 198 -2 13
-17 18 -24 8z m-95 -125 c0 -2 -8 -10 -17 -17 -16 -13 -17 -12 -4 4 13 16 21
21 21 13z m-60 -69 c0 -2 -10 -12 -22 -23 l-23 -19 19 23 c18 21 26 27 26 19z
m-110 -110 c0 -2 -10 -12 -22 -23 l-23 -19 19 23 c18 21 26 27 26 19z"/>
<path d="M959 5967 c-31 -24 -51 -76 -44 -118 5 -27 3 -45 -6 -55 -11 -14 -10
-18 5 -30 23 -16 35 -76 36 -176 0 -43 4 -78 9 -78 15 0 20 42 15 151 -4 101
-3 107 22 140 38 51 61 101 56 124 -10 48 -57 69 -93 42z m56 -30 c12 -19 13
-30 4 -55 -16 -45 -26 -40 -31 16 -6 67 1 78 27 39z m-57 -79 c-4 -74 -22 -84
-26 -14 -4 54 2 76 18 76 7 0 10 -23 8 -62z"/>
<path d="M1188 5596 c-8 -8 -21 -28 -28 -45 l-12 -31 -30 25 c-24 20 -33 23
-44 14 -11 -9 -14 -6 -14 15 0 16 -5 26 -15 26 -11 0 -15 -12 -15 -52 0 -76
11 -87 43 -47 l26 33 17 -37 c10 -20 22 -37 26 -37 5 0 16 17 24 38 8 20 22
52 31 70 18 36 13 51 -9 28z"/>
<path d="M5189 5188 c-30 -35 -59 -66 -66 -71 -7 -4 -10 -14 -6 -22 4 -11 16
-3 47 32 22 26 40 53 40 60 -1 7 2 11 6 8 4 -2 17 9 29 25 40 55 4 31 -50 -32z"/>
<path d="M5031 5018 c-38 -40 -141 -149 -228 -243 -87 -93 -208 -220 -270
-282 -62 -63 -161 -169 -220 -236 -59 -67 -153 -169 -208 -227 -55 -57 -151
-159 -214 -225 -63 -66 -172 -178 -241 -250 -70 -71 -167 -175 -216 -230 -49
-55 -168 -181 -265 -280 -97 -99 -208 -215 -245 -259 -108 -122 -304 -327
-473 -491 -84 -82 -189 -193 -233 -245 -44 -52 -210 -231 -369 -397 -159 -166
-289 -307 -289 -312 0 -23 19 -7 104 87 49 53 150 160 225 237 147 152 295
314 352 385 20 25 153 162 295 306 143 144 284 289 314 324 102 116 204 224
357 380 184 188 247 254 292 306 18 21 97 105 175 185 77 80 179 187 226 238
47 51 136 145 199 209 63 64 127 135 142 156 16 21 29 35 29 31 0 -4 10 5 22
21 28 35 24 32 128 141 47 49 99 104 116 123 18 19 69 71 114 115 46 44 90 92
99 106 9 14 21 28 26 29 14 5 204 216 206 229 0 3 29 31 62 62 54 49 78 79 62
79 -2 0 -35 -33 -74 -72z"/>
<path d="M9257 1983 c-10 -2 -31 -32 -48 -65 -23 -46 -33 -85 -45 -176 -8 -67
-19 -119 -26 -123 -10 -7 -10 -11 0 -21 6 -6 12 -20 12 -30 0 -19 15 -24 25
-8 3 6 26 9 50 8 25 -1 54 5 68 14 36 24 68 119 74 218 5 74 3 91 -16 128 -11
23 -30 46 -40 52 -20 10 -24 11 -54 3z m70 -55 c12 -24 17 -55 16 -113 -1 -93
-14 -148 -46 -196 -25 -37 -53 -47 -80 -27 -16 12 -15 20 18 123 38 120 39
125 26 125 -5 0 -24 -46 -43 -102 l-33 -103 -3 55 c-5 77 15 178 44 228 20 34
30 42 54 42 23 0 33 -7 47 -32z"/>
<path d="M9508 1600 c-25 -43 -35 -49 -44 -25 -9 22 -33 18 -55 -7 l-18 -23
-1 33 c0 42 -24 38 -28 -4 -3 -34 13 -84 27 -84 5 0 14 14 21 30 15 36 23 37
42 8 21 -32 44 -17 73 48 28 64 28 64 15 64 -5 0 -20 -18 -32 -40z"/>
<path d="M9345 1159 c-93 -4 -217 -8 -275 -9 -229 -3 -138 -15 144 -20 226 -4
300 -8 303 -17 4 -10 9 -10 26 -1 13 7 58 12 105 12 71 0 82 2 82 17 0 9 -6
19 -12 21 -21 7 -191 6 -373 -3z"/>
<path d="M7958 1134 c-3 -3 -66 -7 -139 -10 -74 -3 -173 -6 -221 -8 -49 -2
-88 0 -88 5 0 5 -19 8 -42 8 l-43 -2 35 -7 35 -7 -35 -5 c-19 -4 84 -3 230 0
146 4 293 6 328 6 63 0 81 9 40 20 -29 7 -93 8 -100 0z"/>
<path d="M8120 1129 c-23 -4 -3 -7 55 -7 67 -1 84 2 66 9 -25 10 -60 9 -121
-2z"/>
<path d="M8277 1128 c-17 -11 584 -8 608 3 12 5 -108 7 -288 6 -170 -1 -314
-5 -320 -9z"/>
<path d="M6789 1115 c-3 -2 -46 -5 -97 -7 -51 -1 -92 -6 -92 -10 0 -5 42 -8
94 -8 74 0 95 3 100 15 5 15 3 19 -5 10z"/>
<path d="M6856 1109 c28 -10 552 -11 558 -1 3 5 -123 9 -286 9 -160 -1 -283
-4 -272 -8z"/>
<path d="M6297 1098 c-7 -4 57 -8 142 -8 85 0 151 3 148 7 -10 9 -276 10 -290
1z"/>
<path d="M5075 1090 c-88 -4 -103 -7 -74 -13 27 -7 179 -4 229 3 3 0 231 0
508 0 281 0 502 3 502 8 0 10 -982 12 -1165 2z"/>
<path d="M4482 1080 c-90 -10 -85 -17 10 -15 46 1 170 2 276 3 120 1 192 6
192 12 0 11 -377 12 -478 0z"/>
<path d="M3668 1075 c-2 -2 -350 -7 -773 -11 -975 -9 -912 -8 -922 -17 -4 -5
219 -6 497 -3 278 3 822 9 1210 12 388 3 709 10 713 14 5 4 -156 8 -356 8
-201 0 -367 -1 -369 -3z"/>
<path d="M9960 861 c0 -5 -15 -8 -32 -6 -105 8 -250 -196 -234 -329 7 -62 31
-96 80 -115 34 -13 39 -12 100 18 35 17 66 31 68 31 3 0 19 -22 37 -50 18 -27
37 -50 42 -50 9 0 -10 40 -49 102 -16 26 -16 28 5 50 31 33 73 128 73 165 0
33 -19 116 -39 166 -10 25 -51 40 -51 18z m37 -7 c-3 -4 0 -18 7 -33 27 -56
39 -134 26 -180 -12 -46 -47 -108 -73 -129 -13 -11 -17 -10 -26 7 -6 11 -11
27 -11 35 0 18 -25 22 -35 6 -4 -6 3 -26 15 -44 l20 -34 -24 -20 c-14 -10 -40
-25 -57 -32 -28 -12 -36 -11 -68 6 -48 26 -67 86 -51 160 22 101 114 222 183
239 25 7 26 6 20 -32 -6 -34 -5 -37 9 -25 13 10 17 10 21 0 9 -22 27 14 20 40
-3 15 -1 27 8 33 16 10 25 12 16 3z"/>
<path d="M981 737 c-27 -9 -42 -26 -70 -76 -30 -55 -35 -76 -39 -146 -5 -97 9
-129 65 -144 44 -12 76 2 123 55 75 86 100 196 58 257 -45 66 -72 77 -137 54z
m119 -57 c43 -61 16 -170 -60 -247 -79 -80 -150 -48 -150 66 1 63 15 108 54
176 21 35 31 44 40 35 10 -7 17 -6 25 4 17 20 65 2 91 -34z"/>
</g>
</svg>
